ply
format ascii 1.0
comment Automatically gnerated by model-converter
element vertex 52
property float x
property float y
property float z
property uchar red
property uchar green
property uchar blue
element face 69
property list uchar int vertex_indices
end_header
-2.82958316802978516 -0.992095947265625 1.57007730007171631 0 0 0
-2.85604190826416016 -0.992434561252593994 1.57254087924957275 0 0 0
-2.84251832962036133 -0.972145259380340576 1.55820703506469727 0 0 0
-2.79842925071716309 -0.991499423980712891 1.54450225830078125 0 0 0
-2.81131124496459961 -0.99148714542388916 1.52538931369781494 0 0 0
-2.81484198570251465 -0.984060823917388916 1.52908170223236084 0 0 0
-2.78585362434387207 -0.981453418731689453 1.55663418769836426 0 0 0
-2.80341744422912598 -0.951821088790893555 1.57503104209899902 0 0 0
-2.79709506034851074 -0.951497077941894531 1.54657185077667236 0 0 0
-2.74812674522399902 -0.95131528377532959 1.59302973747253418 0 0 0
-2.77589082717895508 -0.951238036155700684 1.54601466655731201 0 0 0
-2.7863929271697998 -0.936458349227905273 1.55702662467956543 0 0 0
-3.03665995597839355 -0.993345439434051514 1.42874777317047119 0 0 0
-2.96955537796020508 -0.993096351623535156 1.49241232872009277 0 0 0
-2.93114709854125977 -0.992472946643829346 1.47372007369995117 0 0 0
-2.92751979827880859 -0.992459475994110107 1.47716140747070312 0 0 0
-2.92612123489379883 -0.992905080318450928 1.5301741361618042 0 0 0
-2.88333988189697266 -0.992505848407745361 1.54319667816162109 0 0 0
-3.015106201171875 -0.975766539573669434 1.44954836368560791 0 0 0
-2.98611783981323242 -0.973159134387969971 1.47710084915161133 0 0 0
-2.95697975158691406 -0.983050346374511719 1.50454425811767578 0 0 0
-2.95856142044067383 -0.975075840950012207 1.44806265830993652 0 0 0
-2.92936325073242188 -0.989966452121734619 1.47546243667602539 0 0 0
-2.87144660949707031 -0.979752123355865479 1.53061103820800781 0 0 0
-2.91087484359741211 -0.991916835308074951 1.43782103061676025 0 0 0
-2.86074566841125488 -0.991520404815673828 1.46126031875610352 0 0 0
-2.83172750473022461 -0.991412699222564697 1.48879098892211914 0 0 0
-2.82289648056030273 -0.990718722343444824 1.42136287689208984 0 0 0
-2.90219616889953613 -0.959386706352233887 1.44670772552490234 0 0 0
-2.87320804595947266 -0.956779301166534424 1.47426021099090576 0 0 0
-2.84395003318786621 -0.976669371128082275 1.50161647796630859 0 0 0
-2.87434005737304688 -0.98630070686340332 1.41745162010192871 0 0 0
-2.82498979568481445 -0.990636348724365234 1.40903961658477783 0 0 0
-2.8177952766418457 -0.985609948635101318 1.41596591472625732 0 0 0
-2.97547578811645508 -0.953120887279510498 1.48759925365447998 0 0 0
-2.9464576244354248 -0.953013181686401367 1.51512992382049561 0 0 0
-2.94069457054138184 -0.952510952949523926 1.46546554565429688 0 0 0
-2.90595579147338867 -0.952472150325775146 1.50876080989837646 0 0 0
-2.90572690963745117 -0.951960444450378418 1.45040023326873779 0 0 0
-2.88014960289001465 -0.951925575733184814 1.48155796527862549 0 0 0
-2.90085434913635254 -0.947363376617431641 1.50336384773254395 0 0 0
-2.94117403030395508 -0.912515342235565186 1.46581435203552246 0 0 0
-2.94061470031738281 -0.912693560123443604 1.48701953887939453 0 0 0
-2.91996955871582031 -0.912256300449371338 1.46525728702545166 0 0 0
-2.93044185638427734 -0.89997631311416626 1.47624742984771729 0 0 0
-3.02865982055664062 -0.993556201457977295 1.46390390396118164 0 0 0
-3.003082275390625 -0.993521332740783691 1.49506163597106934 0 0 0
-2.9689028263092041 -0.993304312229156494 1.51715171337127686 0 0 0
-2.97110271453857422 -0.953345119953155518 1.51931405067443848 0 0 0
-2.81293082237243652 -1.01953232288360596 1.58532345294952393 0 0 0
-2.9016568660736084 -1.00438177585601807 1.44631528854370117 0 0 0
-2.87254881858825684 -1.01177322864532471 1.47378051280975342 0 0 0
3 1 0 2
3 2 0 5
3 5 0 3
3 49 0 1
3 17 1 2
3 17 2 23
3 23 2 5
3 5 3 4
3 5 4 30
3 30 4 26
3 23 5 30
3 8 6 7
3 7 6 9
3 9 6 10
3 10 6 8
3 8 7 11
3 11 7 9
3 10 8 11
3 11 9 10
3 21 12 18
3 18 12 45
3 46 13 19
3 19 13 14
3 19 14 21
3 24 15 28
3 28 15 29
3 29 15 39
3 39 15 38
3 38 15 22
3 22 15 20
3 20 15 37
3 37 15 16
3 50 15 24
3 37 16 17
3 37 17 23
3 21 18 19
3 19 18 45
3 46 19 45
3 35 20 37
3 22 20 34
3 34 20 48
3 48 20 35
3 38 22 36
3 36 22 34
3 37 23 39
3 39 23 29
3 29 23 30
3 31 24 28
3 26 25 29
3 29 25 31
3 50 25 51
3 30 26 29
3 32 27 33
3 31 28 29
3 36 34 41
3 41 34 42
3 42 34 48
3 42 35 37
3 48 35 42
3 38 36 43
3 43 36 41
3 42 37 40
3 40 37 39
3 39 38 43
3 40 39 43
3 42 40 44
3 44 40 43
3 44 41 42
3 43 41 44
