ply
format ascii 1.0
comment Automatically gnerated by model-converter
element vertex 145
property float x
property float y
property float z
property uchar red
property uchar green
property uchar blue
element face 188
property list uchar int vertex_indices
end_header
-5.20697450637817383 -0.354198455810546875 -2.93945670127868652 0 0 0
-5.16299867630004883 -0.353342384099960327 -2.95255780220031738 0 0 0
-5.13999462127685547 -0.35298532247543335 -2.95116972923278809 0 0 0
-5.18606090545654297 -0.314086824655532837 -2.91815733909606934 0 0 0
-5.16544294357299805 -0.313359946012496948 -2.95385575294494629 0 0 0
-5.15061092376708984 -0.283893764019012451 -2.88306188583374023 0 0 0
-5.31091737747192383 -0.358450323343276978 -2.70614528656005859 0 0 0
-5.25804758071899414 -0.356319427490234375 -2.82193183898925781 0 0 0
-5.22040557861328125 -0.354885578155517578 -2.8968052864074707 0 0 0
-5.28567409515380859 -0.317625343799591064 -2.74325823783874512 0 0 0
-5.28824710845947266 -0.315829247236251831 -2.68307995796203613 0 0 0
-5.26056337356567383 -0.307564049959182739 -2.71174287796020508 0 0 0
-5.232879638671875 -0.299298852682113647 -2.74040555953979492 0 0 0
-5.21925592422485352 -0.314883261919021606 -2.89462661743164062 0 0 0
-5.24137449264526367 -0.276235312223434448 -2.80366849899291992 0 0 0
-5.20564126968383789 -0.263538926839828491 -2.76876568794250488 0 0 0
-5.21810674667358398 -0.274880975484848022 -2.89244794845581055 0 0 0
-5.22991752624511719 -0.275444209575653076 -2.85866260528564453 0 0 0
-5.18647241592407227 -0.274246364831924438 -2.90357732772827148 0 0 0
-5.20748758316040039 -0.264823257923126221 -2.88190817832946777 0 0 0
-5.15003156661987305 -0.262005656957626343 -2.82625651359558105 0 0 0
-5.16485929489135742 -0.59309852123260498 -2.98162436485290527 0 0 0
-5.14117717742919922 -0.552435338497161865 -3.00633621215820312 0 0 0
-5.17027664184570312 -0.473217248916625977 -2.97670984268188477 0 0 0
-5.20285177230834961 -0.394095003604888916 -2.94349026679992676 0 0 0
-5.17504692077636719 -0.393328368663787842 -2.97223591804504395 0 0 0
-5.36212158203125 -0.674756109714508057 -3.12242889404296875 0 0 0
-5.37456941604614258 -0.657594859600067139 -3.10966014862060547 0 0 0
-5.34578084945678711 -0.659935355186462402 -3.08187556266784668 0 0 0
-5.18901300430297852 -0.63345789909362793 -2.98519134521484375 0 0 0
-5.23159646987915039 -0.609308779239654541 -2.97007656097412109 0 0 0
-5.22105836868286133 -0.59425199031829834 -2.95948195457458496 0 0 0
-5.18786334991455078 -0.59345555305480957 -2.98301267623901367 0 0 0
-5.15711212158203125 -0.552676737308502197 -3.00784111022949219 0 0 0
-5.18736124038696289 -0.513460934162139893 -2.98039340972900391 0 0 0
-5.22120380401611328 -0.474265009164810181 -2.95642232894897461 0 0 0
-5.18621158599853516 -0.473458617925643921 -2.97821474075317383 0 0 0
-5.21286725997924805 -0.434222936630249023 -2.94729065895080566 0 0 0
-5.41033315658569336 -0.679887056350708008 -2.72738957405090332 0 0 0
-5.39736127853393555 -0.622014701366424561 -2.74112915992736816 0 0 0
-5.36873435974121094 -0.614357113838195801 -2.71323442459106445 0 0 0
-5.36971807479858398 -0.611249983310699463 -2.76976442337036133 0 0 0
-5.34026908874511719 -0.596701443195343018 -2.68522953987121582 0 0 0
-5.35554647445678711 -0.598672866821289062 -2.75572085380554199 0 0 0
-5.33486795425415039 -0.558409333229064941 -2.74856066703796387 0 0 0
-5.27672624588012695 -0.556172668933868408 -2.86620211601257324 0 0 0
-5.35230398178100586 -0.519275844097137451 -2.69480586051940918 0 0 0
-5.25999546051025391 -0.515701174736022949 -2.8837275505065918 0 0 0
-5.31680965423583984 -0.438474804162979126 -2.71397900581359863 0 0 0
-5.27292394638061523 -0.436393618583679199 -2.83845710754394531 0 0 0
-5.22653388977050781 -0.434758156538009644 -2.91877865791320801 0 0 0
-5.3159031867980957 -0.383475393056869507 -2.71163535118103027 0 0 0
-5.22694540023803711 -0.394917696714401245 -2.90419864654541016 0 0 0
-5.44220352172851562 -0.680369734764099121 -2.73039937019348145 0 0 0
-5.46830177307128906 -0.679901301860809326 -2.81129240989685059 0 0 0
-5.52706432342529297 -0.680571079254150391 -2.83684134483337402 0 0 0
-5.49831581115722656 -0.680412054061889648 -2.80902910232543945 0 0 0
-5.43654918670654297 -0.67934262752532959 -2.81535220146179199 0 0 0
-5.62670087814331055 -0.663279294967651367 -2.9640662670135498 0 0 0
-5.45445346832275391 -0.647328019142150879 -2.79702854156494141 0 0 0
-5.40995168685913086 -0.67896568775177002 -2.81048750877380371 0 0 0
-5.37855291366577148 -0.67817920446395874 -2.83575654029846191 0 0 0
-5.57080745697021484 -0.679242730140686035 -3.02174973487854004 0 0 0
-5.35434150695800781 -0.677432477474212646 -2.86797833442687988 0 0 0
-5.34444570541381836 -0.676803171634674072 -2.91057157516479492 0 0 0
-5.48644924163818359 -0.677550435066223145 -3.05142855644226074 0 0 0
-5.34886455535888672 -0.676291406154632568 -2.96353578567504883 0 0 0
-5.36892366409301758 -0.676210880279541016 -3.00033092498779297 0 0 0
-5.45908975601196289 -0.649289071559906006 -3.07987117767333984 0 0 0
-5.43042230606079102 -0.644131004810333252 -3.05200409889221191 0 0 0
-5.40135002136230469 -0.663968145847320557 -3.02441215515136719 0 0 0
-5.43108224868774414 -0.661020040512084961 -3.10875415802001953 0 0 0
-5.40269804000854492 -0.638365328311920166 -3.08069443702697754 0 0 0
-5.46847724914550781 -0.640212714672088623 -2.78257322311401367 0 0 0
-5.65503168106079102 -0.631552159786224365 -2.93496298789978027 0 0 0
-5.51129007339477539 -0.630756974220275879 -2.79590249061584473 0 0 0
-5.48254156112670898 -0.630597949028015137 -2.76809048652648926 0 0 0
-5.45363140106201172 -0.640437006950378418 -2.74038839340209961 0 0 0
-5.42598819732666016 -0.62967228889465332 -2.76902365684509277 0 0 0
-5.39802169799804688 -0.638903796672821045 -2.79787921905517578 0 0 0
-5.37029743194580078 -0.633138120174407959 -2.82656979560852051 0 0 0
-5.34339570999145508 -0.634263396263122559 -2.91190028190612793 0 0 0
-5.38267946243286133 -0.635946333408355713 -3.04387187957763672 0 0 0
-5.34433889389038086 -0.633655786514282227 -2.96845769882202148 0 0 0
-5.28740882873535156 -0.59834444522857666 -2.91244816780090332 0 0 0
-5.28794765472412109 -0.622732043266296387 -2.96928095817565918 0 0 0
-5.25972509384155273 -0.590079247951507568 -2.94111108779907227 0 0 0
-5.24951076507568359 -0.55502629280090332 -2.93029618263244629 0 0 0
-5.67398691177368164 -0.681651949882507324 -2.95463418960571289 0 0 0
-5.6695399284362793 -0.681014478206634521 -3.00597715377807617 0 0 0
-5.62887096405029297 -0.644567430019378662 -3.07698845863342285 0 0 0
-5.5999603271484375 -0.654406487941741943 -3.0492866039276123 0 0 0
-5.559173583984375 -0.678565561771392822 -3.06613945960998535 0 0 0
-5.69080495834350586 -0.641749024391174316 -2.96983814239501953 0 0 0
-5.64862585067749023 -0.640902876853942871 -2.98467755317687988 0 0 0
-5.67239665985107422 -0.640766263008117676 -3.03201866149902344 0 0 0
-5.68382024765014648 -0.629211664199829102 -2.96274757385253906 0 0 0
-5.6559748649597168 -0.630944550037384033 -2.99152040481567383 0 0 0
-5.61236810684204102 -0.639744758605957031 -3.0365452766418457 0 0 0
-5.65691852569580078 -0.630336940288543701 -3.04807806015014648 0 0 0
-5.62825107574462891 -0.625178873538970947 -3.02021074295043945 0 0 0
-5.62903261184692383 -0.634569346904754639 -3.07687854766845703 0 0 0
-5.55263376235961914 -0.638533413410186768 -3.0587460994720459 0 0 0
-5.64538431167602539 -0.68256610631942749 -2.82958483695983887 0 0 0
-5.62011146545410156 -0.682502925395965576 -2.79817962646484375 0 0 0
-5.67333841323852539 -0.682069659233093262 -2.91575098037719727 0 0 0
-5.4651484489440918 -0.68076479434967041 -2.72825264930725098 0 0 0
-5.65282106399536133 -0.652763485908508301 -2.82206821441650391 0 0 0
-5.65327882766723633 -0.682150185108184814 -2.87895584106445312 0 0 0
-5.69136381149291992 -0.642556428909301758 -2.89734458923339844 0 0 0
-5.68173122406005859 -0.64292442798614502 -2.84977006912231445 0 0 0
-5.62249660491943359 -0.642558455467224121 -2.79594254493713379 0 0 0
-5.56420564651489258 -0.641584932804107666 -2.79867243766784668 0 0 0
-5.68295764923095703 -0.624820172786712646 -2.90613484382629395 0 0 0
-5.56796455383300781 -0.624184072017669678 -2.79488658905029297 0 0 0
-5.53909492492675781 -0.631523609161376953 -2.76715707778930664 0 0 0
-5.6923069953918457 -0.641948819160461426 -2.95390224456787109 0 0 0
-5.44887018203735352 -0.992262125015258789 -2.8008272647857666 0 0 0
-5.55484867095947266 -0.999121963977813721 -3.01484370231628418 0 0 0
-5.52344989776611328 -0.998335480690002441 -3.04011273384094238 0 0 0
-5.49169778823852539 -0.997776806354522705 -3.04417252540588379 0 0 0
-5.52050399780273438 -0.958323240280151367 -3.03619575500488281 0 0 0
-5.57198810577392578 -0.920603752136230469 -2.90409111976623535 0 0 0
-5.52665615081787109 -0.920621037483215332 -2.83589076995849609 0 0 0
-5.41325473785400391 -0.918959617614746094 -2.8200831413269043 0 0 0
-5.56220865249633789 -0.880323886871337891 -2.91443014144897461 0 0 0
-5.5702214241027832 -0.879831969738006592 -2.9708709716796875 0 0 0
-5.59667062759399414 -0.799986422061920166 -2.99432563781738281 0 0 0
-5.39652490615844727 -0.797002494335174561 -2.97111010551452637 0 0 0
-5.63554954528808594 -0.76104813814163208 -2.9543602466583252 0 0 0
-5.37725830078125 -0.758163928985595703 -2.83663725852966309 0 0 0
-5.40854215621948242 -0.756690025329589844 -3.01644778251647949 0 0 0
-5.34173679351806641 -0.736743807792663574 -2.91302871704101562 0 0 0
-5.38688945770263672 -0.71822124719619751 -2.84488821029663086 0 0 0
-5.34650754928588867 -0.717385053634643555 -2.8614659309387207 0 0 0
-5.44141340255737305 -0.71695256233215332 -3.04022622108459473 0 0 0
-5.33337116241455078 -0.716508090496063232 -2.92179155349731445 0 0 0
-5.34839391708374023 -0.716169893741607666 -2.97458076477050781 0 0 0
-5.65716886520385742 -0.721554815769195557 -2.93943047523498535 0 0 0
-5.65451860427856445 -0.72092735767364502 -2.99251151084899902 0 0 0
-5.56614398956298828 -0.736662566661834717 -2.79612541198730469 0 0 0
-5.64903831481933594 -0.722122669219970703 -2.87591981887817383 0 0 0
-5.63257217407226562 -0.722223103046417236 -2.84260129928588867 0 0 0
-5.65705060958862305 -0.721630752086639404 -2.93236064910888672 0 0 0
-5.56477975845336914 -1.05167162418365479 -3.02585124969482422 0 0 0
3 24 0 1
3 1 0 3
3 3 0 13
3 13 0 8
3 8 0 24
3 2 1 4
3 4 1 3
3 24 1 25
3 25 1 2
3 5 3 18
3 18 3 16
3 16 3 13
3 19 5 18
3 51 6 7
3 7 6 9
3 9 6 10
3 8 7 17
3 17 7 14
3 14 7 9
3 51 7 52
3 52 7 8
3 13 8 16
3 16 8 17
3 52 8 24
3 11 9 10
3 19 16 17
3 18 16 19
3 22 21 32
3 32 21 29
3 23 22 33
3 33 22 32
3 25 23 36
3 36 23 34
3 34 23 33
3 37 24 25
3 52 24 50
3 37 25 36
3 28 26 27
3 27 26 71
3 72 27 71
3 28 27 72
3 85 28 72
3 32 29 31
3 31 29 30
3 31 30 85
3 32 31 35
3 35 31 87
3 87 31 86
3 86 31 85
3 34 32 35
3 33 32 34
3 36 34 35
3 36 35 37
3 37 35 87
3 50 37 87
3 53 38 77
3 77 38 39
3 77 39 78
3 78 39 41
3 41 39 40
3 41 40 43
3 43 40 44
3 44 40 42
3 78 41 79
3 79 41 80
3 80 41 43
3 44 42 46
3 80 43 84
3 84 43 45
3 45 43 44
3 45 44 49
3 49 44 46
3 50 45 47
3 47 45 49
3 84 45 87
3 87 45 50
3 49 46 48
3 48 46 51
3 52 47 49
3 50 47 52
3 49 48 51
3 52 49 51
3 106 53 77
3 57 54 59
3 59 54 73
3 73 54 56
3 56 55 75
3 75 55 112
3 73 56 75
3 60 57 79
3 79 57 78
3 78 57 59
3 74 58 94
3 78 59 73
3 61 60 80
3 80 60 79
3 133 61 134
3 134 61 63
3 63 61 80
3 91 62 102
3 102 62 92
3 64 63 81
3 81 63 80
3 134 63 136
3 136 63 64
3 136 64 66
3 66 64 81
3 68 65 69
3 69 65 70
3 70 65 135
3 137 66 67
3 67 66 83
3 83 66 81
3 136 66 137
3 131 67 70
3 70 67 82
3 82 67 83
3 137 67 131
3 71 68 72
3 72 68 69
3 72 69 70
3 131 70 135
3 72 70 82
3 85 72 82
3 76 73 75
3 78 73 76
3 113 74 96
3 96 74 97
3 97 74 94
3 115 75 114
3 114 75 112
3 76 75 115
3 78 76 77
3 77 76 115
3 106 77 115
3 81 80 84
3 83 81 84
3 85 82 83
3 85 83 84
3 85 84 86
3 86 84 87
3 138 88 139
3 139 88 89
3 89 88 93
3 93 88 116
3 116 88 105
3 95 89 93
3 98 90 101
3 101 90 99
3 99 90 95
3 95 93 96
3 96 93 116
3 97 94 100
3 100 94 98
3 99 95 97
3 97 95 96
3 113 96 116
3 99 97 100
3 100 98 101
3 101 99 100
3 142 103 108
3 108 103 107
3 107 103 111
3 111 103 104
3 104 103 142
3 140 104 142
3 116 105 109
3 109 105 110
3 110 105 108
3 108 105 143
3 108 107 110
3 142 108 141
3 116 109 113
3 119 118 126
3 120 119 121
3 121 119 126
3 126 122 125
3 125 122 123
3 139 127 129
3 131 128 137
3 137 128 132
3 132 128 134
3 134 128 130
3 139 129 138
3 134 130 133
3 137 132 136
3 136 132 134
3 141 140 142
