ply
format ascii 1.0
comment Automatically gnerated by model-converter
element vertex 371
property float x
property float y
property float z
property uchar red
property uchar green
property uchar blue
element face 639
property list uchar int vertex_indices
end_header
-2.04889655113220215 -0.648572742938995361 -1.46327924728393555 0 0 0
-2.04010987281799316 -0.648602128028869629 -1.46528935432434082 0 0 0
-1.98555517196655273 -0.613513588905334473 -1.41388320922851562 0 0 0
-1.95814275741577148 -0.648701250553131104 -1.44278633594512939 0 0 0
-1.95425176620483398 -0.648927867412567139 -1.49417757987976074 0 0 0
-1.98875045776367188 -0.648984193801879883 -1.52682864665985107 0 0 0
-1.93059396743774414 -0.626389622688293457 -1.47193253040313721 0 0 0
-1.90152466297149658 -0.618842244148254395 -1.44446873664855957 0 0 0
-2.059112548828125 -0.608502745628356934 -1.45255434513092041 0 0 0
-2.02834248542785645 -0.608467042446136475 -1.42687439918518066 0 0 0
-1.97662639617919922 -0.609066963195800781 -1.53970766067504883 0 0 0
-1.94757473468780518 -0.60901951789855957 -1.51221203804016113 0 0 0
-2.08307623863220215 -0.568338632583618164 -1.42730379104614258 0 0 0
-1.90348136425018311 -0.568613290786743164 -1.39157044887542725 0 0 0
-1.95637321472167969 -0.558466851711273193 -1.38662028312683105 0 0 0
-1.9765315055847168 -0.569067478179931641 -1.53987681865692139 0 0 0
-1.91155457496643066 -0.569019615650177002 -1.49214839935302734 0 0 0
-1.87234866619110107 -0.566295504570007324 -1.41719520092010498 0 0 0
-2.01648044586181641 -0.52833247184753418 -1.38862860202789307 0 0 0
-2.01284909248352051 -0.528326570987701416 -1.38519167900085449 0 0 0
-1.93996059894561768 -0.528440535068511963 -1.37128090858459473 0 0 0
-1.90147364139556885 -0.528596103191375732 -1.38648700714111328 0 0 0
-1.88496971130371094 -0.528816699981689453 -1.42938315868377686 0 0 0
-1.93707430362701416 -0.529091060161590576 -1.52344465255737305 0 0 0
-1.91661512851715088 -0.52898484468460083 -1.48687052726745605 0 0 0
-1.98840665817260742 -0.503986001014709473 -1.52744197845458984 0 0 0
-1.93033909797668457 -0.518890917301177979 -1.47238731384277344 0 0 0
-2.08116817474365234 -0.488351404666900635 -1.42945778369903564 0 0 0
-2.04696106910705566 -0.488339245319366455 -1.40740931034088135 0 0 0
-1.99728810787200928 -0.488432854413986206 -1.40170204639434814 0 0 0
-2.07082176208496094 -0.473422110080718994 -1.44041550159454346 0 0 0
-1.93986570835113525 -0.488441020250320435 -1.37145006656646729 0 0 0
-1.89421308040618896 -0.488599479198455811 -1.38331639766693115 0 0 0
-1.96791183948516846 -0.488879978656768799 -1.49093127250671387 0 0 0
-1.91840100288391113 -0.488726317882537842 -1.42686164379119873 0 0 0
-2.04330253601074219 -0.463610321283340454 -1.46950888633728027 0 0 0
-1.98522329330444336 -0.473515331745147705 -1.41447544097900391 0 0 0
-2.01581907272338867 -0.468798339366912842 -1.49853885173797607 0 0 0
-1.98675572872161865 -0.463750958442687988 -1.47106444835662842 0 0 0
-1.95773375034332275 -0.476203382015228271 -1.44351589679718018 0 0 0
-2.2839357852935791 -0.648534238338470459 -1.58590853214263916 0 0 0
-2.2673346996307373 -0.648740112781524658 -1.62527048587799072 0 0 0
-2.14568138122558594 -0.648541510105133057 -1.51013267040252686 0 0 0
-2.18416833877563477 -0.648385941982269287 -1.4949265718460083 0 0 0
-2.14979910850524902 -0.648621022701263428 -1.53124046325683594 0 0 0
-2.08654046058654785 -0.648561418056488037 -1.48169636726379395 0 0 0
-2.15836167335510254 -0.636062383651733398 -1.52221488952636719 0 0 0
-2.25073361396789551 -0.648945987224578857 -1.66463243961334229 0 0 0
-2.03077173233032227 -0.648819804191589355 -1.51152527332305908 0 0 0
-2.0727691650390625 -0.638655602931976318 -1.49626421928405762 0 0 0
-2.21026849746704102 -0.649345874786376953 -1.73648250102996826 0 0 0
-1.99782907962799072 -0.648999035358428955 -1.53542101383209229 0 0 0
-2.17304587364196777 -0.649692773818969727 -1.79763281345367432 0 0 0
-2.29655098915100098 -0.608555495738983154 -1.59810709953308105 0 0 0
-2.26542401313781738 -0.608737647533416748 -1.62372124195098877 0 0 0
-2.05635643005371094 -0.608629286289215088 -1.48092484474182129 0 0 0
-2.23040628433227539 -0.609146416187286377 -1.70072674751281738 0 0 0
-2.24697756767272949 -0.596440672874450684 -1.66141760349273682 0 0 0
-2.28374600410461426 -0.568535208702087402 -1.58624696731567383 0 0 0
-2.09101986885070801 -0.568453550338745117 -1.45891678333282471 0 0 0
-2.05626153945922852 -0.568629801273345947 -1.4810941219329834 0 0 0
-2.21760129928588867 -0.569126129150390625 -1.68886661529541016 0 0 0
-2.19555306434631348 -0.569323122501373291 -1.72307312488555908 0 0 0
-2.07564425468444824 -0.539127826690673828 -1.60978066921234131 0 0 0
-2.01756477355957031 -0.549032866954803467 -1.55474722385406494 0 0 0
-2.28546690940856934 -0.528538703918457031 -1.58813464641571045 0 0 0
-2.27794456481933594 -0.528759360313415527 -1.63608896732330322 0 0 0
-2.26705002784729004 -0.528741598129272461 -1.62577807903289795 0 0 0
-2.11089801788330078 -0.528486669063568115 -1.4779893159866333 0 0 0
-2.11203289031982422 -0.528386592864990234 -1.45496857166290283 0 0 0
-2.27273917198181152 -0.521018028259277344 -1.57613694667816162 0 0 0
-2.24366378784179688 -0.510970711708068848 -1.54868364334106445 0 0 0
-2.21462416648864746 -0.515923202037811279 -1.52116692066192627 0 0 0
-2.18558454513549805 -0.520875751972198486 -1.49365019798278809 0 0 0
-2.15649724006652832 -0.505828499794006348 -1.46621799468994141 0 0 0
-2.21616840362548828 -0.51115882396697998 -1.57773482799530029 0 0 0
-2.12899589538574219 -0.503516614437103271 -1.49527978897094727 0 0 0
-2.23592329025268555 -0.528923749923706055 -1.65139222145080566 0 0 0
-2.07977128028869629 -0.528668820858001709 -1.50360345840454102 0 0 0
-2.18119192123413086 -0.529067337512969971 -1.65466630458831787 0 0 0
-2.1748044490814209 -0.529187977313995361 -1.67959988117218018 0 0 0
-2.09280514717102051 -0.529010415077209473 -1.59166598320007324 0 0 0
-2.15960955619812012 -0.506299495697021484 -1.57931149005889893 0 0 0
-2.10151243209838867 -0.508704602718353271 -1.52430975437164307 0 0 0
-2.08288335800170898 -0.529139816761016846 -1.61669683456420898 0 0 0
-2.06654191017150879 -0.529113173484802246 -1.60123062133789062 0 0 0
-2.0374903678894043 -0.529065728187561035 -1.57373499870300293 0 0 0
-2.19010829925537109 -0.529329478740692139 -1.72162103652954102 0 0 0
-2.00720667839050293 -0.529103636741638184 -1.56572592258453369 0 0 0
-2.17104291915893555 -0.529706001281738281 -1.79995608329772949 0 0 0
-2.25375890731811523 -0.488647729158401489 -1.59624707698822021 0 0 0
-2.11537504196166992 -0.488363564014434814 -1.45150637626647949 0 0 0
-2.21448779106140137 -0.45842394232749939 -1.52141010761260986 0 0 0
-2.1854243278503418 -0.453376561403274536 -1.49393570423126221 0 0 0
-2.15643811225891113 -0.480828791856765747 -1.4663238525390625 0 0 0
-2.15793490409851074 -0.456064611673355103 -1.52297627925872803 0 0 0
-2.1289069652557373 -0.466017067432403564 -1.4954383373260498 0 0 0
-2.09987926483154297 -0.475969523191452026 -1.46790051460266113 0 0 0
-2.17487192153930664 -0.488941192626953125 -1.6214066743850708 0 0 0
-2.14238357543945312 -0.488917291164398193 -1.597542405128479 0 0 0
-2.12020587921142578 -0.488822817802429199 -1.56278407573699951 0 0 0
-2.07740640640258789 -0.488869428634643555 -1.54981410503387451 0 0 0
-2.02429652214050293 -0.488986581563949585 -1.54773819446563721 0 0 0
-2.15950894355773926 -0.463800042867660522 -1.5794912576675415 0 0 0
-2.13045144081115723 -0.46125262975692749 -1.55200624465942383 0 0 0
-2.19015789031982422 -0.481582760810852051 -1.66345953941345215 0 0 0
-2.04487061500549316 -0.468845754861831665 -1.52603447437286377 0 0 0
-2.19536328315734863 -0.489324122667312622 -1.7234114408493042 0 0 0
-2.16517996788024902 -0.448576569557189941 -1.52988183498382568 0 0 0
-2.25366401672363281 -0.448648244142532349 -1.59641635417938232 0 0 0
-2.20759034156799316 -0.4484710693359375 -1.52871525287628174 0 0 0
-2.11511778831481934 -0.448611319065093994 -1.51003789901733398 0 0 0
-2.15787553787231445 -0.43106493353843689 -1.52308201789855957 0 0 0
-2.2647850513458252 -0.448972165584564209 -1.67922627925872803 0 0 0
-2.17399907112121582 -0.448823928833007812 -1.59330248832702637 0 0 0
-2.12679028511047363 -0.448746860027313232 -1.54862213134765625 0 0 0
-2.06324005126953125 -0.448643118143081665 -1.48847556114196777 0 0 0
-2.19915962219238281 -0.449097990989685059 -1.67218935489654541 0 0 0
-2.22600626945495605 -0.449083566665649414 -1.68382978439331055 0 0 0
-2.19351792335510254 -0.449059665203094482 -1.6599656343460083 0 0 0
-2.17649555206298828 -0.448929935693740845 -1.61976015567779541 0 0 0
-2.09449625015258789 -0.448752373456954956 -1.53182625770568848 0 0 0
-2.15943169593811035 -0.431300431489944458 -1.57962870597839355 0 0 0
-2.07228302955627441 -0.433658123016357422 -1.49713134765625 0 0 0
-2.23071074485778809 -0.408451229333877563 -1.53708791732788086 0 0 0
-2.17844390869140625 -0.408424139022827148 -1.5013887882232666 0 0 0
-2.11158609390258789 -0.408635318279266357 -1.51383852958679199 0 0 0
-2.19724893569946289 -0.409095525741577148 -1.67064011096954346 0 0 0
-2.19342303276062012 -0.409060150384902954 -1.66013479232788086 0 0 0
-2.15078616142272949 -0.408859491348266602 -1.58880233764648438 0 0 0
-2.121734619140625 -0.408812075853347778 -1.56130671501159668 0 0 0
-2.15930724143981934 -0.378801077604293823 -1.57985079288482666 0 0 0
-2.13025569915771484 -0.378753662109375 -1.55235517024993896 0 0 0
-2.10126352310180664 -0.40370592474937439 -1.52475380897521973 0 0 0
-2.16836214065551758 -0.36881604790687561 -1.5884854793548584 0 0 0
-2.26603817939758301 -0.648272037506103516 -1.51389551162719727 0 0 0
-2.28163361549377441 -0.648457705974578857 -1.56651926040649414 0 0 0
-2.26461148262023926 -0.648327946662902832 -1.52631378173828125 0 0 0
-2.29356813430786133 -0.608375906944274902 -1.5539785623550415 0 0 0
-2.27138447761535645 -0.605781495571136475 -1.51923072338104248 0 0 0
-2.26584839820861816 -0.568273067474365234 -1.51423394680023193 0 0 0
-2.26393795013427734 -0.528270542621612549 -1.51268470287322998 0 0 0
-2.28134918212890625 -0.52845919132232666 -1.56702673435211182 0 0 0
-2.25294876098632812 -0.488253265619277954 -1.50254297256469727 0 0 0
-2.2386174201965332 -0.488258987665176392 -1.49586355686187744 0 0 0
-2.19409966468811035 -0.488317370414733887 -1.48470914363861084 0 0 0
-2.16161131858825684 -0.488293439149856567 -1.46084499359130859 0 0 0
-2.02404069900512695 -0.968497872352600098 -1.43079876899719238 0 0 0
-1.98983383178710938 -0.968485713005065918 -1.40875029563903809 0 0 0
-1.96250069141387939 -0.968426525592803955 -1.37943899631500244 0 0 0
-2.02271127700805664 -0.968568503856658936 -1.44675111770629883 0 0 0
-2.00247883796691895 -0.968768477439880371 -1.48267614841461182 0 0 0
-1.91895556449890137 -0.968632102012634277 -1.40362632274627686 0 0 0
-2.00153827667236328 -0.96889793872833252 -1.51276516914367676 0 0 0
-2.04444670677185059 -0.946104347705841064 -1.4674680233001709 0 0 0
-1.95732748508453369 -0.960961878299713135 -1.3849177360534668 0 0 0
-1.90598595142364502 -0.96884387731552124 -1.44642519950866699 0 0 0
-1.97919833660125732 -0.969050765037536621 -1.5363692045211792 0 0 0
-1.94842827320098877 -0.969015121459960938 -1.510689377784729 0 0 0
-1.91765832901000977 -0.968979418277740479 -1.48500943183898926 0 0 0
-2.06674504280090332 -0.928451776504516602 -1.44393801689147949 0 0 0
-1.99145746231079102 -0.92847442626953125 -1.4071037769317627 0 0 0
-2.0134727954864502 -0.92881619930267334 -1.50022447109222412 0 0 0
-2.01689791679382324 -0.923792719841003418 -1.49661433696746826 0 0 0
-1.911338210105896 -0.928853273391723633 -1.45174980163574219 0 0 0
-2.07352423667907715 -0.888405263423919678 -1.4368443489074707 0 0 0
-2.02385115623474121 -0.888498842716217041 -1.4311370849609375 0 0 0
-1.94237029552459717 -0.888671636581420898 -1.42630481719970703 0 0 0
-1.96902251243591309 -0.888627767562866211 -1.4308769702911377 0 0 0
-1.98416399955749512 -0.889016509056091309 -1.53126049041748047 0 0 0
-1.95339405536651611 -0.88898080587387085 -1.50558066368103027 0 0 0
-2.06483697891235352 -0.848464488983154297 -1.44609200954437256 0 0 0
-2.02031922340393066 -0.848522841930389404 -1.43493771553039551 0 0 0
-1.96224832534790039 -0.848704695701599121 -1.44537723064422607 0 0 0
-1.96532845497131348 -0.848899006843566895 -1.49303996562957764 0 0 0
-1.98922455310821533 -0.848981738090515137 -1.52598261833190918 0 0 0
-2.07505297660827637 -0.808394491672515869 -1.43536710739135742 0 0 0
-2.02051615715026855 -0.808567523956298828 -1.4457094669342041 0 0 0
-1.97304785251617432 -0.808722972869873047 -1.45585727691650391 0 0 0
-1.99084818363189697 -0.808970451354980469 -1.52433609962463379 0 0 0
-1.97038900852203369 -0.808864235877990723 -1.48776209354400635 0 0 0
-2.07323956489562988 -0.768406689167022705 -1.43735194206237793 0 0 0
-2.00952696800231934 -0.768550217151641846 -1.43556773662567139 0 0 0
-1.96024298667907715 -0.76870274543762207 -1.44399714469909668 0 0 0
-1.9907534122467041 -0.768970966339111328 -1.5245053768157959 0 0 0
-1.96513879299163818 -0.768900036811828613 -1.4933784008026123 0 0 0
-1.98740172386169434 -0.736247599124908447 -1.46991181373596191 0 0 0
-2.05596017837524414 -0.728524744510650635 -1.45567810535430908 0 0 0
-2.01851081848144531 -0.728565573692321777 -1.44432938098907471 0 0 0
-1.99646258354187012 -0.728762507438659668 -1.47853589057922363 0 0 0
-2.06617617607116699 -0.688454747200012207 -1.44495308399200439 0 0 0
-2.02567887306213379 -0.688577890396118164 -1.45137238502502441 0 0 0
-1.9927363395690918 -0.688757061958312988 -1.47526812553405762 0 0 0
-2.00774836540222168 -0.688854396343231201 -1.50668680667877197 0 0 0
-1.98875629901885986 -0.651484191417694092 -1.52681803703308105 0 0 0
-1.95972263813018799 -0.658936619758605957 -1.49929070472717285 0 0 0
-2.26809334754943848 -0.968736171722412109 -1.62391698360443115 0 0 0
-2.31471848487854004 -0.968724906444549561 -1.64739227294921875 0 0 0
-2.2787930965423584 -0.968724489212036133 -1.6271594762802124 0 0 0
-2.24467158317565918 -0.935965478420257568 -1.54688596725463867 0 0 0
-2.15909075736999512 -0.943558633327484131 -1.52091419696807861 0 0 0
-2.10099363327026367 -0.945963740348815918 -1.46591246128082275 0 0 0
-2.03058981895446777 -0.96894538402557373 -1.54026079177856445 0 0 0
-2.10255575180053711 -0.94869917631149292 -1.52244865894317627 0 0 0
-2.03127074241638184 -0.969048440456390381 -1.56499993801116943 0 0 0
-2.00824999809265137 -0.969098210334777832 -1.56386482715606689 0 0 0
-2.25373220443725586 -0.928480386734008789 -1.55551016330718994 0 0 0
-2.17176532745361328 -0.928579568862915039 -1.53300702571868896 0 0 0
-2.0791633129119873 -0.928428351879119873 -1.44536483287811279 0 0 0
-2.31462383270263672 -0.92872542142868042 -1.64756143093109131 0 0 0
-2.27869820594787598 -0.928725004196166992 -1.62732863426208496 0 0 0
-2.17108440399169922 -0.928476512432098389 -1.50826776027679443 0 0 0
-2.1146998405456543 -0.928369879722595215 -1.45146095752716064 0 0 0
-2.33175492286682129 -0.90610814094543457 -1.62949967384338379 0 0 0
-2.2445826530456543 -0.898465931415557861 -1.54704463481903076 0 0 0
-2.25139737129211426 -0.928942501544952393 -1.66344809532165527 0 0 0
-2.09047889709472656 -0.928781747817993164 -1.53524303436279297 0 0 0
-2.06314587593078613 -0.928722560405731201 -1.50593173503875732 0 0 0
-2.27860355377197266 -0.888725519180297852 -1.62749791145324707 0 0 0
-2.06039214134216309 -0.888864278793334961 -1.53800570964813232 0 0 0
-2.0921025276184082 -0.888770461082458496 -1.53359651565551758 0 0 0
-2.22017574310302734 -0.889125168323516846 -1.6892315149307251 0 0 0
-2.0129237174987793 -0.889019787311553955 -1.54815363883972168 0 0 0
-2.28985714912414551 -0.848540663719177246 -1.5902179479598999 0 0 0
-2.27870321273803711 -0.848755419254302979 -1.6347353458404541 0 0 0
-2.26962447166442871 -0.848740637302398682 -1.62614297866821289 0 0 0
-2.17339134216308594 -0.848583519458770752 -1.53506386280059814 0 0 0
-2.08260512351989746 -0.848435282707214355 -1.44914007186889648 0 0 0
-2.17089486122131348 -0.848477482795715332 -1.5086061954498291 0 0 0
-2.11107325553894043 -0.848394393920898438 -1.45543074607849121 0 0 0
-2.14855480194091797 -0.848630309104919434 -1.53221023082733154 0 0 0
-2.21692109107971191 -0.828654885292053223 -1.57639181613922119 0 0 0
-2.18786382675170898 -0.826107501983642578 -1.54890680313110352 0 0 0
-2.21463370323181152 -0.849116742610931396 -1.68424522876739502 0 0 0
-2.01827621459960938 -0.849029183387756348 -1.55347824096679688 0 0 0
-2.28976225852966309 -0.808541178703308105 -1.59038722515106201 0 0 0
-2.25863528251647949 -0.808723330497741699 -1.61600136756896973 0 0 0
-2.2459254264831543 -0.808702588081359863 -1.60397207736968994 0 0 0
-2.23233985900878906 -0.808549344539642334 -1.56013524532318115 0 0 0
-2.20157003402709961 -0.808513641357421875 -1.53445529937744141 0 0 0
-2.11269688606262207 -0.80838310718536377 -1.45378422737121582 0 0 0
-2.26122927665710449 -0.808844029903411865 -1.64599323272705078 0 0 0
-2.20656299591064453 -0.808725655078887939 -1.58737063407897949 0 0 0
-2.17751145362854004 -0.808678209781646729 -1.5598750114440918 0 0 0
-2.215240478515625 -0.77592003345489502 -1.52006721496582031 0 0 0
-2.21683239936828613 -0.791155338287353516 -1.57655048370361328 0 0 0
-2.06201815605163574 -0.808868229389190674 -1.5400625467300415 0 0 0
-2.03452277183532715 -0.809056341648101807 -1.56911373138427734 0 0 0
-2.00958895683288574 -0.809088408946990967 -1.56272590160369873 0 0 0
-2.28966736793518066 -0.768541634082794189 -1.59055638313293457 0 0 0
-2.20977568626403809 -0.768411219120025635 -1.51494348049163818 0 0 0
-2.27125048637390137 -0.768744587898254395 -1.62819993495941162 0 0 0
-2.20225310325622559 -0.768631935119628906 -1.56289780139923096 0 0 0
-2.17414212226867676 -0.768454968929290771 -1.50531315803527832 0 0 0
-2.17569804191589355 -0.76869046688079834 -1.56185996532440186 0 0 0
-2.2442328929901123 -0.750967741012573242 -1.54766857624053955 0 0 0
-2.18768596649169922 -0.751108407974243164 -1.54922401905059814 0 0 0
-2.11665463447570801 -0.768725156784057617 -1.53695774078369141 0 0 0
-2.07462763786315918 -0.766389548778533936 -1.55227172374725342 0 0 0
-2.03261232376098633 -0.769053876399993896 -1.56756436824798584 0 0 0
-2.20968079566955566 -0.728411734104156494 -1.51511263847351074 0 0 0
-2.17129111289978027 -0.728582024574279785 -1.53385293483734131 0 0 0
-2.23215031623840332 -0.728550314903259277 -1.56047356128692627 0 0 0
-2.213409423828125 -0.728432357311248779 -1.52208375930786133 0 0 0
-2.1757657527923584 -0.728443682193756104 -1.50366663932800293 0 0 0
-2.10219645500183105 -0.728454649448394775 -1.46501672267913818 0 0 0
-2.14655184745788574 -0.728643536567687988 -1.53453350067138672 0 0 0
-2.18757915496826172 -0.706108987331390381 -1.54941439628601074 0 0 0
-2.25273895263671875 -0.728947937488555908 -1.66601252555847168 0 0 0
-2.11655974388122559 -0.728725612163543701 -1.53712701797485352 0 0 0
-2.10903739929199219 -0.728946328163146973 -1.58508133888244629 0 0 0
-2.0231471061706543 -0.728995382785797119 -1.5485386848449707 0 0 0
-2.07449722290039062 -0.711390197277069092 -1.55250430107116699 0 0 0
-2.28584623336791992 -0.688536703586578369 -1.58745777606964111 0 0 0
-2.20050740242004395 -0.688397407531738281 -1.50668954849243164 0 0 0
-2.10764598846435547 -0.688478767871856689 -1.47387552261352539 0 0 0
-2.24408459663391113 -0.688468515872955322 -1.54793286323547363 0 0 0
-2.17567086219787598 -0.688444197177886963 -1.50383591651916504 0 0 0
-2.14833760261535645 -0.688385009765625 -1.47452461719512939 0 0 0
-2.17722702026367188 -0.688679695129394531 -1.56038260459899902 0 0 0
-2.14817547798156738 -0.688632309436798096 -1.53288698196411133 0 0 0
-2.24408459663391113 -0.688468515872955322 -1.54793286323547363 0 0 0
-2.21497988700866699 -0.665921390056610107 -1.52053248882293701 0 0 0
-2.18750214576721191 -0.673609375953674316 -1.54955184459686279 0 0 0
-2.12939906120300293 -0.673514485359191895 -1.49456071853637695 0 0 0
-2.25082850456237793 -0.688945472240447998 -1.66446328163146973 0 0 0
-2.11646485328674316 -0.688726127147674561 -1.53729617595672607 0 0 0
-2.0916283130645752 -0.688772916793823242 -1.53444254398345947 0 0 0
-2.10190367698669434 -0.673702597618103027 -1.52361178398132324 0 0 0
-2.04534482955932617 -0.668843328952789307 -1.52518844604492188 0 0 0
-2.01786708831787109 -0.676531314849853516 -1.55420792102813721 0 0 0
-2.34824466705322266 -0.968634068965911865 -1.64470160007476807 0 0 0
-2.36091327667236328 -0.951155006885528564 -1.65680491924285889 0 0 0
-2.36081242561340332 -0.908655524253845215 -1.65698468685150146 0 0 0
-2.33268189430236816 -0.967909753322601318 -1.46475064754486084 0 0 0
-2.29247641563415527 -0.96807706356048584 -1.48177242279052734 0 0 0
-2.26498103141784668 -0.968265116214752197 -1.51082348823547363 0 0 0
-2.34736943244934082 -0.968501567840576172 -1.61289405822753906 0 0 0
-2.32003617286682129 -0.968442380428314209 -1.58358275890350342 0 0 0
-2.28411078453063965 -0.968441963195800781 -1.56334996223449707 0 0 0
-2.31417036056518555 -0.928113102912902832 -1.50256335735321045 0 0 0
-2.28849053382873535 -0.928304195404052734 -1.5333329439163208 0 0 0
-2.3472745418548584 -0.928502082824707031 -1.61306333541870117 0 0 0
-2.31994152069091797 -0.928442895412445068 -1.58375203609466553 0 0 0
-2.28917145729064941 -0.928407192230224609 -1.55807209014892578 0 0 0
-2.25324606895446777 -0.928406774997711182 -1.53783929347991943 0 0 0
-2.24306201934814453 -0.913230240345001221 -1.49043452739715576 0 0 0
-2.33249235153198242 -0.887910723686218262 -1.46508896350860596 0 0 0
-2.34422969818115234 -0.887784242630004883 -1.44177663326263428 0 0 0
-2.27957677841186523 -0.888057291507720947 -1.47008144855499268 0 0 0
-2.29021143913269043 -0.888307631015777588 -1.53522062301635742 0 0 0
-2.25934433937072754 -0.888257205486297607 -1.50600647926330566 0 0 0
-2.23392415046691895 -0.888215720653533936 -1.48194789886474609 0 0 0
-2.26534271240234375 -0.888077735900878906 -1.46693623065948486 0 0 0
-2.31984663009643555 -0.888443350791931152 -1.58392119407653809 0 0 0
-2.2976689338684082 -0.888348937034606934 -1.54916274547576904 0 0 0
-2.23441052436828613 -0.888289332389831543 -1.49961864948272705 0 0 0
-2.24293756484985352 -0.860730886459350586 -1.49065649509429932 0 0 0
-2.29219198226928711 -0.848078548908233643 -1.48228001594543457 0 0 0
-2.28466939926147461 -0.848299205303192139 -1.53023433685302734 0 0 0
-2.28726339340209961 -0.84841996431350708 -1.5602262020111084 0 0 0
-2.32170009613037109 -0.807938098907470703 -1.46571910381317139 0 0 0
-2.26155376434326172 -0.808349490165710449 -1.52926838397979736 0 0 0
-2.2428131103515625 -0.808231532573699951 -1.49087858200073242 0 0 0
-2.33402347564697266 -0.767915129661560059 -1.46731507778167725 0 0 0
-2.2853550910949707 -0.768432676792144775 -1.56238019466400146 0 0 0
-2.26833295822143555 -0.768302977085113525 -1.52217483520507812 0 0 0
-2.24269461631774902 -0.758232176303863525 -1.49109005928039551 0 0 0
-2.26078057289123535 -0.728262186050415039 -1.50840175151824951 0 0 0
-2.29745197296142578 -0.7281036376953125 -1.49147713184356689 0 0 0
-2.28354191780090332 -0.728444933891296387 -1.56436514854431152 0 0 0
-2.22543883323669434 -0.72835010290145874 -1.50937390327453613 0 0 0
-2.34203720092773438 -0.687798500061035156 -1.44443833827972412 0 0 0
-2.26250147819519043 -0.688265621662139893 -1.51028943061828613 0 0 0
-2.2834470272064209 -0.688445448875427246 -1.56453430652618408 0 0 0
-2.23221778869628906 -0.688303530216217041 -1.50228035449981689 0 0 0
-2.29906368255615234 -0.683092415332794189 -1.48985183238983154 0 0 0
-2.37632608413696289 -0.928549528121948242 -1.64055883884429932 0 0 0
-1.96067094802856445 -1.05893170833587646 -1.49759876728057861 0 0 0
-2.09624361991882324 -1.04825043678283691 -1.41256356239318848 0 0 0
-2.06359267234802246 -1.04847383499145508 -1.44706177711486816 0 0 0
-2.01403450965881348 -1.02832043170928955 -1.38307666778564453 0 0 0
-1.9684293270111084 -1.04847860336303711 -1.39485847949981689 0 0 0
-2.01559066772460938 -1.02855587005615234 -1.43962347507476807 0 0 0
-1.95749938488006592 -1.03346097469329834 -1.38461112976074219 0 0 0
-1.98810708522796631 -1.03374397754669189 -1.46865344047546387 0 0 0
-1.93001580238342285 -1.03864896297454834 -1.41364109516143799 0 0 0
-1.96062350273132324 -1.03893196582794189 -1.49768340587615967 0 0 0
-1.93157196044921875 -1.03888452053070068 -1.47018778324127197 0 0 0
-1.90252041816711426 -1.03883707523345947 -1.44269216060638428 0 0 0
-2.04667019844055176 -1.00837397575378418 -1.41409385204315186 0 0 0
-2.08755636215209961 -1.00830972194671631 -1.42181122303009033 0 0 0
-2.06349778175354004 -1.00847423076629639 -1.44723093509674072 0 0 0
-2.0413200855255127 -1.00837981700897217 -1.41247260570526123 0 0 0
-1.99508404731750488 -1.00844991207122803 -1.40313398838043213 0 0 0
-1.9677509069442749 -1.00839078426361084 -1.37382268905639648 0 0 0
-2.07204270362854004 -0.988415777683258057 -1.43823707103729248 0 0 0
-2.03006911277770996 -1.00857985019683838 -1.45345580577850342 0 0 0
-1.99531066417694092 -1.00875604152679443 -1.47563302516937256 0 0 0
-1.92086613178253174 -1.00863456726074219 -1.40517556667327881 0 0 0
-1.99132239818572998 -1.00896799564361572 -1.52349019050598145 0 0 0
-1.89155495166778564 -1.00881969928741455 -1.43250823020935059 0 0 0
-1.98960399627685547 -1.00897979736328125 -1.52530586719512939 0 0 0
-1.94508624076843262 -1.00903809070587158 -1.51415157318115234 0 0 0
-1.89713156223297119 -1.00911998748779297 -1.50662863254547119 0 0 0
-2.08298444747924805 -1.00843334197998047 -1.4484633207321167 0 0 0
-2.33195662498474121 -0.99110710620880127 -1.62914013862609863 0 0 0
-2.01860213279724121 -0.986527442932128906 -1.55289661884307861 0 0 0
-2.34393072128295898 -1.00769448280334473 -1.42006397247314453 0 0 0
-2.32729411125183105 -0.992900550365447998 -1.45948946475982666 0 0 0
-2.2632601261138916 -1.00826168060302734 -1.50893580913543701 0 0 0
3 45 0 8
3 8 0 9
3 9 0 1
3 1 0 191
3 191 0 190
3 190 0 275
3 275 0 45
3 2 1 3
3 3 1 192
3 192 1 191
3 9 1 2
3 9 2 19
3 19 2 14
3 14 2 13
3 13 2 7
3 7 2 3
3 6 3 4
3 4 3 192
3 7 3 6
3 195 4 192
3 6 4 16
3 16 4 11
3 11 4 5
3 5 4 195
3 194 5 195
3 11 5 10
3 10 5 51
3 51 5 194
3 7 6 16
3 17 7 16
3 13 7 17
3 12 8 18
3 18 8 9
3 45 8 55
3 55 8 59
3 59 8 12
3 18 9 19
3 11 10 15
3 15 10 51
3 24 11 23
3 23 11 15
3 16 11 24
3 27 12 28
3 28 12 18
3 59 12 69
3 69 12 27
3 14 13 21
3 21 13 22
3 22 13 17
3 19 14 20
3 20 14 21
3 64 15 51
3 23 15 25
3 25 15 88
3 88 15 64
3 17 16 22
3 22 16 24
3 28 18 29
3 29 18 19
3 29 19 31
3 31 19 20
3 31 20 32
3 32 20 21
3 32 21 34
3 34 21 22
3 26 22 24
3 34 22 26
3 33 23 25
3 24 23 33
3 26 24 33
3 33 25 37
3 37 25 106
3 106 25 102
3 102 25 88
3 34 26 39
3 39 26 33
3 30 27 28
3 69 27 91
3 91 27 30
3 30 28 36
3 36 28 29
3 36 29 31
3 35 30 38
3 38 30 39
3 39 30 36
3 91 30 97
3 97 30 35
3 36 31 32
3 36 32 39
3 39 32 34
3 38 33 37
3 39 33 38
3 37 35 38
3 97 35 116
3 116 35 106
3 106 35 37
3 136 40 53
3 53 40 41
3 41 40 285
3 285 40 273
3 273 40 334
3 334 40 136
3 53 41 54
3 54 41 47
3 47 41 285
3 284 42 43
3 43 42 46
3 46 42 44
3 44 42 284
3 277 43 274
3 274 43 283
3 283 43 46
3 284 43 278
3 278 43 277
3 46 44 283
3 283 44 279
3 279 44 280
3 280 44 286
3 286 44 284
3 275 45 288
3 288 45 49
3 49 45 55
3 54 47 57
3 57 47 56
3 56 47 50
3 49 48 289
3 289 48 193
3 193 48 51
3 288 49 287
3 287 49 289
3 56 50 62
3 193 51 194
3 58 53 54
3 136 53 138
3 138 53 58
3 58 54 67
3 67 54 57
3 60 55 59
3 57 56 62
3 67 57 61
3 61 57 62
3 65 58 67
3 138 58 142
3 142 58 65
3 68 59 69
3 60 59 68
3 64 60 78
3 78 60 68
3 67 61 77
3 77 61 79
3 79 61 80
3 80 61 87
3 87 61 62
3 87 62 89
3 85 63 84
3 84 63 81
3 81 63 85
3 88 64 86
3 86 64 78
3 142 65 70
3 76 68 74
3 74 68 91
3 91 68 69
3 78 68 83
3 83 68 76
3 71 70 75
3 75 70 90
3 142 70 71
3 72 71 82
3 82 71 75
3 142 71 141
3 141 71 144
3 144 71 72
3 73 72 76
3 76 72 83
3 83 72 100
3 100 72 82
3 144 72 145
3 145 72 73
3 74 73 76
3 145 73 146
3 146 73 74
3 146 74 91
3 82 75 98
3 105 77 79
3 86 78 101
3 101 78 83
3 105 79 117
3 117 79 80
3 107 80 87
3 117 80 107
3 84 81 85
3 99 82 98
3 100 82 99
3 101 83 100
3 102 86 101
3 88 86 102
3 107 87 89
3 146 91 94
3 94 91 97
3 144 92 143
3 143 92 110
3 110 92 95
3 95 92 93
3 93 92 144
3 145 93 144
3 95 93 96
3 96 93 94
3 94 93 145
3 146 94 145
3 96 94 97
3 110 95 108
3 108 95 103
3 103 95 104
3 104 95 96
3 104 96 115
3 115 96 111
3 111 96 97
3 111 97 116
3 120 98 119
3 99 98 120
3 103 99 114
3 114 99 120
3 100 99 103
3 104 100 103
3 101 100 121
3 121 100 104
3 102 101 106
3 106 101 123
3 123 101 121
3 108 103 114
3 121 104 115
3 118 105 117
3 116 106 123
3 110 108 125
3 125 108 112
3 112 108 114
3 115 111 126
3 126 111 116
3 122 112 114
3 125 112 126
3 126 112 115
3 115 112 122
3 122 114 120
3 121 115 130
3 130 115 122
3 126 116 123
3 120 119 128
3 122 120 129
3 129 120 128
3 133 121 130
3 123 121 133
3 130 122 129
3 126 123 133
3 133 125 126
3 129 128 134
3 131 129 134
3 130 129 131
3 132 130 131
3 133 130 132
3 139 135 137
3 137 135 281
3 281 135 335
3 335 135 333
3 137 136 138
3 334 136 137
3 139 137 138
3 334 137 276
3 139 138 142
3 140 139 142
3 141 140 142
3 143 141 144
3 353 147 150
3 150 147 154
3 154 147 160
3 160 147 161
3 161 147 148
3 148 147 353
3 354 148 353
3 161 148 149
3 149 148 354
3 355 149 354
3 161 149 155
3 151 150 163
3 163 150 154
3 353 150 357
3 357 150 358
3 358 150 151
3 153 151 163
3 358 151 360
3 360 151 153
3 359 152 155
3 155 152 167
3 167 152 164
3 164 152 156
3 156 152 361
3 361 152 359
3 202 153 162
3 162 153 163
3 360 153 202
3 203 154 201
3 201 154 160
3 163 154 217
3 217 154 203
3 161 155 167
3 164 156 159
3 159 156 364
3 364 156 361
3 362 157 158
3 158 157 170
3 170 157 169
3 169 157 205
3 205 157 362
3 159 158 170
3 362 158 363
3 363 158 159
3 164 159 170
3 363 159 364
3 165 160 166
3 166 160 161
3 201 160 208
3 208 160 165
3 166 161 168
3 168 161 167
3 202 162 222
3 222 162 219
3 219 162 163
3 219 163 217
3 167 164 173
3 173 164 174
3 174 164 170
3 227 165 171
3 171 165 166
3 208 165 212
3 212 165 229
3 229 165 227
3 171 166 172
3 172 166 168
3 168 167 173
3 172 168 173
3 222 169 205
3 170 169 175
3 175 169 234
3 234 169 222
3 174 170 175
3 176 171 172
3 227 171 176
3 176 172 177
3 177 172 173
3 177 173 178
3 178 173 174
3 180 174 179
3 179 174 175
3 178 174 180
3 179 175 248
3 248 175 234
3 181 176 177
3 227 176 229
3 229 176 240
3 240 176 181
3 181 177 182
3 182 177 178
3 182 178 183
3 183 178 180
3 180 179 185
3 185 179 184
3 184 179 248
3 183 180 185
3 187 181 182
3 240 181 265
3 265 181 187
3 187 182 188
3 188 182 186
3 186 182 183
3 186 183 185
3 185 184 189
3 189 184 271
3 271 184 248
3 186 185 189
3 188 186 189
3 190 187 188
3 265 187 275
3 275 187 190
3 190 188 191
3 191 188 189
3 193 189 271
3 191 189 192
3 192 189 193
3 195 192 194
3 194 192 193
3 290 193 271
3 289 193 290
3 198 196 210
3 209 197 210
3 210 197 198
3 198 197 366
3 214 199 206
3 206 199 305
3 305 199 214
3 207 200 211
3 211 200 201
3 201 200 203
3 203 200 207
3 211 201 212
3 212 201 208
3 367 202 204
3 204 202 222
3 360 202 367
3 216 203 207
3 217 203 216
3 205 204 222
3 367 204 205
3 367 205 362
3 214 206 305
3 226 207 211
3 216 207 220
3 220 207 230
3 230 207 226
3 213 209 218
3 218 209 210
3 293 209 213
3 218 210 215
3 226 211 228
3 228 211 240
3 240 211 229
3 229 211 212
3 302 213 314
3 314 213 223
3 223 213 218
3 293 213 337
3 337 213 302
3 217 216 220
3 219 217 220
3 223 218 225
3 246 219 257
3 257 219 220
3 222 219 234
3 234 219 246
3 257 220 230
3 235 223 225
3 314 223 320
3 320 223 235
3 235 225 236
3 232 226 228
3 230 226 243
3 243 226 232
3 232 228 239
3 239 228 253
3 253 228 265
3 265 228 240
3 266 230 254
3 254 230 243
3 257 230 266
3 242 231 237
3 237 231 238
3 238 231 239
3 239 231 232
3 232 231 242
3 243 232 242
3 248 234 247
3 247 234 246
3 249 235 236
3 320 235 325
3 325 235 249
3 249 236 251
3 251 236 241
3 245 237 238
3 242 237 245
3 245 238 252
3 252 238 244
3 244 238 239
3 244 239 253
3 251 241 268
3 243 242 254
3 254 242 245
3 250 244 253
3 252 244 255
3 255 244 326
3 326 244 323
3 323 244 250
3 254 245 252
3 258 246 257
3 247 246 258
3 259 247 258
3 248 247 259
3 271 248 259
3 273 249 251
3 325 249 273
3 260 250 256
3 256 250 253
3 323 250 327
3 327 250 260
3 273 251 268
3 256 252 263
3 263 252 255
3 254 252 256
3 256 253 264
3 264 253 265
3 266 254 256
3 263 255 262
3 262 255 330
3 330 255 326
3 261 256 264
3 260 256 263
3 266 256 261
3 269 257 266
3 258 257 269
3 270 258 269
3 259 258 271
3 271 258 270
3 274 260 267
3 267 260 263
3 327 260 331
3 331 260 335
3 335 260 274
3 267 261 264
3 266 261 279
3 279 261 267
3 276 262 334
3 334 262 330
3 263 262 276
3 267 263 276
3 267 264 277
3 277 264 278
3 278 264 265
3 278 265 275
3 280 266 279
3 269 266 280
3 279 267 281
3 274 267 277
3 273 268 285
3 286 269 280
3 270 269 287
3 287 269 286
3 272 270 287
3 271 270 272
3 290 271 272
3 289 272 287
3 290 272 289
3 325 273 330
3 330 273 334
3 282 274 283
3 335 274 282
3 278 275 284
3 284 275 288
3 283 279 281
3 283 281 282
3 282 281 335
3 286 284 288
3 287 286 288
3 297 291 292
3 297 292 337
3 369 294 368
3 308 294 307
3 307 294 300
3 300 294 295
3 295 294 369
3 370 295 369
3 300 295 296
3 296 295 370
3 300 296 301
3 301 296 304
3 304 296 299
3 366 297 298
3 298 297 303
3 303 297 302
3 302 297 337
3 299 298 304
3 304 298 303
3 307 300 309
3 309 300 310
3 310 300 301
3 310 301 304
3 303 302 314
3 304 303 315
3 315 303 314
3 310 304 315
3 316 306 311
3 311 306 313
3 313 306 312
3 312 306 316
3 308 307 324
3 324 307 321
3 321 307 318
3 318 307 309
3 318 309 310
3 318 310 319
3 319 310 315
3 317 311 313
3 316 311 317
3 313 312 317
3 317 312 316
3 315 314 320
3 319 315 320
3 321 318 323
3 323 318 319
3 323 319 322
3 322 319 320
3 322 320 325
3 327 321 323
3 324 321 329
3 329 321 327
3 326 322 325
3 323 322 326
3 332 324 336
3 336 324 329
3 326 325 330
3 329 327 328
3 328 327 331
3 329 328 336
3 336 328 333
3 333 328 335
3 335 328 331
3 365 339 351
3 350 340 352
3 352 340 365
3 353 341 354
3 354 341 355
3 355 341 342
3 355 342 344
3 345 343 357
3 357 343 353
3 347 345 360
3 360 345 358
3 358 345 357
3 348 345 347
3 359 346 361
3 361 346 349
3 363 347 362
3 362 347 360
3 348 347 349
3 349 347 364
3 364 347 363
3 361 349 364
3 351 350 356
3 356 350 352
3 365 351 356
3 356 352 365
3 362 360 367
