ply
format ascii 1.0
comment Automatically gnerated by model-converter
element vertex 393
property float x
property float y
property float z
property uchar red
property uchar green
property uchar blue
element face 437
property list uchar int vertex_indices
end_header
-5.31146478652954102 -0.934329748153686523 -1.27484273910522461 0 0 0
-5.32913637161254883 -0.895044326782226562 -1.23522734642028809 0 0 0
-5.55518150329589844 1.38723528385162354 0.0820235386490821838 0 0 0
-5.55638885498046875 1.38684570789337158 0.115633726119995117 0 0 0
-5.5956578254699707 1.33451676368713379 0.0414655879139900208 0 0 0
-5.6167140007019043 1.34643936157226562 0.0631622970104217529 0 0 0
-5.62374591827392578 1.35124683380126953 0.0704037100076675415 0 0 0
-5.56657266616821289 1.37156105041503906 0.126248106360435486 0 0 0
-5.56731414794921875 1.35967099666595459 0.0695529505610466003 0 0 0
-5.53963041305541992 1.36793625354766846 0.0408900976181030273 0 0 0
-5.56899833679199219 1.34838855266571045 -0.0436997264623641968 0 0 0
-5.6228022575378418 1.3506392240524292 0.126961231231689453 0 0 0
-0.905139684677124023 0.620984077453613281 2.73542118072509766 0 0 0
-1.32068324089050293 0.617758631706237793 2.53414130210876465 0 0 0
-1.20610201358795166 0.618664801120758057 2.58771681785583496 0 0 0
-1.13086140155792236 0.619244635105133057 2.62464308738708496 0 0 0
-1.32575953006744385 0.897691667079925537 2.53839683532714844 0 0 0
-1.01580071449279785 0.58015519380569458 2.67786979675292969 0 0 0
-1.31340718269348145 0.297866463661193848 2.52772355079650879 0 0 0
-1.23988711833953857 0.298409849405288696 2.56646323204040527 0 0 0
-1.32020390033721924 0.577763020992279053 2.53379249572753906 0 0 0
-1.0534210205078125 0.57986527681350708 2.65940666198730469 0 0 0
-1.31129240989685059 -0.0221350695937871933 2.52674627304077148 0 0 0
-1.27367210388183594 -0.0218451600521802902 2.54520940780639648 0 0 0
-1.27395439147949219 -0.141868501901626587 2.54597640037536621 0 0 0
-1.30709278583526611 -0.659638404846191406 2.52481365203857422 0 0 0
-1.26828646659851074 -0.90185844898223877 2.54297518730163574 0 0 0
-4.78857612609863281 1.36313915252685547 -1.59836173057556152 0 0 0
-4.78783464431762695 1.37502920627593994 -1.54166662693023682 0 0 0
-4.81674480438232422 1.38486826419830322 -1.56936860084533691 0 0 0
-1.26727128028869629 0.798160314559936523 2.56431198120117188 0 0 0
-1.52717244625091553 0.796203851699829102 2.43144345283508301 0 0 0
-1.70667183399200439 0.794936478137969971 2.33006072044372559 0 0 0
-1.64003336429595947 0.795334100723266602 2.37605428695678711 0 0 0
-1.79214990139007568 1.07418036460876465 2.30283069610595703 0 0 0
-1.68272984027862549 1.07497715950012207 2.3618466854095459 0 0 0
-1.82845175266265869 0.963902473449707031 2.28340816497802734 0 0 0
-2.08623051643371582 1.07200682163238525 2.1478722095489502 0 0 0
-2.16175341606140137 0.951403677463531494 2.11171317100524902 0 0 0
-2.12413311004638672 0.951693594455718994 2.13017606735229492 0 0 0
-2.57021808624267578 0.788305044174194336 1.90359711647033691 0 0 0
-2.41801643371582031 0.789501070976257324 1.97563576698303223 0 0 0
-2.4865725040435791 0.949086010456085205 1.9310375452041626 0 0 0
-2.57261514663696289 0.988283216953277588 1.90534138679504395 0 0 0
-2.41793155670166016 1.06954348087310791 1.97445070743560791 0 0 0
-2.99780464172363281 0.784824490547180176 1.7150118350982666 0 0 0
-3.01575446128845215 0.784697771072387695 1.70487356185913086 0 0 0
-3.19498753547668457 0.823188364505767822 1.63211309909820557 0 0 0
-4.74319124221801758 1.41253316402435303 0.73356318473815918 0 0 0
-5.16905736923217773 1.40908908843994141 0.543164372444152832 0 0 0
-5.05596733093261719 1.41047060489654541 0.540192961692810059 0 0 0
-5.03383111953735352 1.41043245792388916 0.574977755546569824 0 0 0
-4.96203136444091797 1.41093945503234863 0.615530848503112793 0 0 0
-4.89641809463500977 1.41166388988494873 0.622648477554321289 0 0 0
-4.96381473541259766 1.08984148502349854 0.734901726245880127 0 0 0
-4.80817222595214844 1.0911104679107666 0.803313314914703369 0 0 0
-4.73637247085571289 1.09161746501922607 0.843866467475891113 0 0 0
-4.69531154632568359 1.0919802188873291 0.858702480792999268 0 0 0
-4.9674530029296875 1.24978768825531006 0.738110601902008057 0 0 0
-4.95588922500610352 1.2900383472442627 0.725764811038970947 0 0 0
-4.91998958587646484 1.29029178619384766 0.746041357517242432 0 0 0
-4.89466285705566406 1.3308340311050415 0.719187378883361816 0 0 0
-4.81601142883300781 1.33398652076721191 0.752508223056793213 0 0 0
-4.9293212890625 1.37061262130737305 0.697446167469024658 0 0 0
-4.87277650833129883 1.37130343914031982 0.695960462093353271 0 0 0
-4.90363502502441406 1.38115811347961426 0.670330524444580078 0 0 0
-4.87622833251953125 1.39174008369445801 0.641401410102844238 0 0 0
-4.81804227828979492 1.37945687770843506 0.696353673934936523 0 0 0
-4.76006555557250977 1.38467180728912354 0.751458585262298584 0 0 0
-4.73089742660522461 1.37228083610534668 0.77888023853302002 0 0 0
-4.84864187240600586 1.38732361793518066 0.612341463565826416 0 0 0
-4.70352077484130859 1.38536250591278076 0.749972879886627197 0 0 0
-5.00315570831298828 1.08951520919799805 0.718252182006835938 0 0 0
-5.00707578659057617 1.12943792343139648 0.722228109836578369 0 0 0
-5.03485298156738281 1.16936230659484863 0.69323277473449707 0 0 0
-5.0387730598449707 1.20928502082824707 0.697208642959594727 0 0 0
-5.00679349899291992 1.24946129322052002 0.721461117267608643 0 0 0
-5.06875038146972656 1.2891685962677002 0.670375704765319824 0 0 0
-5.03112983703613281 1.2894585132598877 0.688838720321655273 0 0 0
-5.05374574661254883 1.32949221134185791 0.654402852058410645 0 0 0
-5.01268482208251953 1.32985496520996094 0.669238805770874023 0 0 0
-5.10168886184692383 1.32898366451263428 0.646820902824401855 0 0 0
-5.07980251312255859 1.3694530725479126 0.623593986034393311 0 0 0
-5.18937253952026367 1.38115477561950684 0.564686834812164307 0 0 0
-5.10557079315185547 1.40492606163024902 0.534380972385406494 0 0 0
-5.07640266418457031 1.39253520965576172 0.56180262565612793 0 0 0
-5.0180964469909668 1.37025308609008789 0.616667687892913818 0 0 0
-4.98913812637329102 1.37536025047302246 0.644241988658905029 0 0 0
-4.96006011962890625 1.37046849727630615 0.671729028224945068 0 0 0
-4.99080944061279297 1.39083397388458252 0.587825775146484375 0 0 0
-4.93289327621459961 1.40104830265045166 0.642974317073822021 0 0 0
-5.59553766250610352 1.37214767932891846 0.179192245006561279 0 0 0
-5.56651926040649414 1.37225532531738281 0.20672290027141571 0 0 0
-5.56807088851928711 1.37773013114929199 0.150219500064849854 0 0 0
-5.54069423675537109 1.39081180095672607 0.121312171220779419 0 0 0
-5.48241806030273438 1.37102937698364258 0.176199048757553101 0 0 0
-5.48402929306030273 1.38150358200073242 0.119739264249801636 0 0 0
-5.19125699996948242 1.08806562423706055 0.625936985015869141 0 0 0
-5.11773681640625 1.08860898017883301 0.66467660665512085 0 0 0
-5.23107719421386719 1.12773489952087402 0.609636306762695312 0 0 0
-5.04297542572021484 1.12918448448181152 0.701951503753662109 0 0 0
-5.23155641555786133 1.16773056983947754 0.609985113143920898 0 0 0
-5.19909763336181641 1.16791117191314697 0.633888721466064453 0 0 0
-5.07935476303100586 1.16892659664154053 0.682023823261260986 0 0 0
-5.08203411102294922 1.24888145923614502 0.684535026550292969 0 0 0
-5.42386054992675781 1.08618044853210449 0.522412776947021484 0 0 0
-5.34345865249633789 1.08686959743499756 0.553898334503173828 0 0 0
-5.38466930389404297 1.09900546073913574 0.539171338081359863 0 0 0
-5.41593503952026367 1.2863771915435791 0.513275861740112305 0 0 0
-5.4405217170715332 1.3668818473815918 0.422641843557357788 0 0 0
-5.37904453277587891 1.36717021465301514 0.47407609224319458 0 0 0
-5.41996669769287109 1.37481832504272461 0.400944977998733521 0 0 0
-5.3910984992980957 1.38742470741271973 0.428584635257720947 0 0 0
-5.66141271591186523 1.36594176292419434 0.226857349276542664 0 0 0
-4.94965696334838867 0.770095109939575195 0.721229851245880127 0 0 0
-4.80089616775512695 0.771218299865722656 0.796895503997802734 0 0 0
-4.68459463119506836 0.772160887718200684 0.848657608032226562 0 0 0
-4.94889545440673828 0.850122809410095215 0.720113992691040039 0 0 0
-4.95305538177490234 0.91004335880279541 0.724264323711395264 0 0 0
-4.96225929260253906 0.770018279552459717 0.712719321250915527 0 0 0
-5.06595897674560547 0.769152462482452393 0.669467747211456299 0 0 0
-5.06613874435424805 0.784150838851928711 0.669598579406738281 0 0 0
-4.99119758605957031 0.809727907180786133 0.706742644309997559 0 0 0
-5.03273820877075195 0.849360764026641846 0.692255496978759766 0 0 0
-4.99923515319824219 1.04959237575531006 0.714276313781738281 0 0 0
-5.10721731185913086 0.928808689117431641 0.654213607311248779 0 0 0
-5.15439844131469727 1.00832784175872803 0.645515859127044678 0 0 0
-5.07447576522827148 1.04901266098022461 0.677350223064422607 0 0 0
-5.38088178634643555 0.926560699939727783 0.535853385925292969 0 0 0
-4.35245084762573242 0.594603478908538818 1.02231788635253906 0 0 0
-4.2858123779296875 0.595001101493835449 1.06831169128417969 0 0 0
-4.26023483276367188 0.595035910606384277 1.09946930408477783 0 0 0
-4.64997196197509766 0.592357099056243896 0.870986521244049072 0 0 0
-4.53883171081542969 0.593190371990203857 0.928189218044281006 0 0 0
-4.50121164321899414 0.593480288982391357 0.946652233600616455 0 0 0
-4.39007091522216797 0.594313561916351318 1.00385487079620361 0 0 0
-4.46208047866821289 0.611304700374603271 0.963454365730285645 0 0 0
-4.56786346435546875 0.632929742336273193 0.918678343296051025 0 0 0
-4.64969015121459961 0.712380409240722656 0.870219588279724121 0 0 0
-4.49920892715454102 0.713540077209472656 0.944071710109710693 0 0 0
-4.46339893341064453 0.721292734146118164 0.964413702487945557 0 0 0
-4.95093441009521484 0.590037822723388672 0.723282217979431152 0 0 0
-4.88085508346557617 0.59050828218460083 0.765648841857910156 0 0 0
-4.83463287353515625 0.590980410575866699 0.775044262409210205 0 0 0
-4.72349214553833008 0.59181368350982666 0.832246959209442139 0 0 0
-4.68415164947509766 0.592140078544616699 0.848896443843841553 0 0 0
-4.83607101440429688 0.710967302322387695 0.776090800762176514 0 0 0
-4.91179084777832031 0.750383138656616211 0.739513576030731201 0 0 0
-4.71338033676147461 0.791898429393768311 0.838967442512512207 0 0 0
-4.94864988327026367 0.83012092113494873 0.719934701919555664 0 0 0
-4.95256996154785156 0.870043694972991943 0.72391057014465332 0 0 0
-4.98855495452880859 0.589747905731201172 0.704819142818450928 0 0 0
-5.06385517120361328 0.594167530536651611 0.66793668270111084 0 0 0
-5.05397653579711914 0.829189002513885498 0.682030797004699707 0 0 0
-4.99315166473388672 0.8296852707862854 0.70872575044631958 0 0 0
-4.99191045761108398 0.86971735954284668 0.707261085510253906 0 0 0
-5.14763784408569336 0.588406085968017578 0.64003455638885498 0 0 0
-5.06551599502563477 0.589131653308868408 0.669706583023071289 0 0 0
-5.09845399856567383 0.628946661949157715 0.646151840686798096 0 0 0
-5.1102147102355957 0.748714923858642578 0.65807950496673584 0 0 0
-5.07059192657470703 0.869064629077911377 0.673961997032165527 0 0 0
-4.35205650329589844 0.274565517902374268 1.02315425872802734 0 0 0
-4.36133480072021484 0.474397927522659302 1.03215253353118896 0 0 0
-4.65741825103759766 0.352164626121520996 0.879774630069732666 0 0 0
-4.61511611938476562 0.39255949854850769 0.893145918846130371 0 0 0
-4.65321588516235352 0.432265222072601318 0.875031709671020508 0 0 0
-4.51009559631347656 0.473274737596511841 0.956486821174621582 0 0 0
-4.64949274063110352 0.552361428737640381 0.870637714862823486 0 0 0
-4.61531352996826172 0.552578449249267578 0.892727792263031006 0 0 0
-4.54007291793823242 0.553158283233642578 0.92965388298034668 0 0 0
-4.432373046875 0.553918719291687012 0.990483582019805908 0 0 0
-4.69159793853759766 0.351947605609893799 0.857684493064880371 0 0 0
-4.73141765594482422 0.391616880893707275 0.841383814811706543 0 0 0
-4.76999711990356445 0.471318244934082031 0.823618471622467041 0 0 0
-4.95341634750366211 0.509973645210266113 0.7262115478515625 0 0 0
-4.9504551887512207 0.550042152404785156 0.722933351993560791 0 0 0
-4.87693500518798828 0.550585567951202393 0.7616729736328125 0 0 0
-4.72129249572753906 0.551854491233825684 0.830084562301635742 0 0 0
-4.98931646347045898 0.509720206260681152 0.705935001373291016 0 0 0
-5.03381824493408203 0.509284496307373047 0.694726049900054932 0 0 0
-5.07143878936767578 0.508994579315185547 0.676262974739074707 0 0 0
-5.10953855514526367 0.548700332641601562 0.658148765563964844 0 0 0
-5.06503629684448242 0.549135982990264893 0.669357717037200928 0 0 0
-4.49641752243041992 0.19352392852306366 0.943163812160491943 0 0 0
-1.48739469051361084 0.616509377956390381 2.44833588600158691 0 0 0
-1.33863401412963867 0.617632567882537842 2.5240015983581543 0 0 0
-1.26339340209960938 0.618212342262268066 2.5609276294708252 0 0 0
-1.22577309608459473 0.618502259254455566 2.5793907642364502 0 0 0
-1.49199151992797852 0.856446743011474609 2.45224237442016602 0 0 0
-1.49247097969055176 0.89644235372543335 2.4525914192199707 0 0 0
-1.58602619171142578 0.615782618522644043 2.39610958099365234 0 0 0
-1.52501499652862549 0.616219460964202881 2.42987275123596191 0 0 0
-1.53009128570556641 0.89615243673324585 2.4341282844543457 0 0 0
-1.7866365909576416 0.61422652006149292 2.29881811141967773 0 0 0
-1.70795524120330811 0.614879190921783447 2.33211708068847656 0 0 0
-1.63615548610687256 0.615386128425598145 2.37267017364501953 0 0 0
-1.79515373706817627 0.894086658954620361 2.30670046806335449 0 0 0
-2.08243775367736816 0.612016558647155762 2.14567303657531738 0 0 0
-1.93539738655090332 0.613103330135345459 2.22315239906311035 0 0 0
-1.82425689697265625 0.61393660306930542 2.28035497665405273 0 0 0
-2.22947812080383301 0.610929787158966064 2.06819391250610352 0 0 0
-2.08606505393981934 0.612003087997436523 2.14223170280456543 0 0 0
-2.34387040138244629 0.73007667064666748 2.01031708717346191 0 0 0
-2.38235616683959961 0.809748351573944092 1.99608588218688965 0 0 0
-2.56289935111999512 0.608429908752441406 1.89658594131469727 0 0 0
-2.4856562614440918 0.729069530963897705 1.9309314489364624 0 0 0
-2.68092155456542969 0.607450902462005615 1.84663736820220947 0 0 0
-2.60396051406860352 0.608067154884338379 1.88174986839294434 0 0 0
-2.79550266265869141 0.606544733047485352 1.79306173324584961 0 0 0
-2.71854186058044434 0.607160985469818115 1.82817435264587402 0 0 0
-2.72485899925231934 0.84706193208694458 1.83389437198638916 0 0 0
-3.14612817764282227 0.603680431842803955 1.63958895206451416 0 0 0
-3.07260799407958984 0.604223847389221191 1.67832863330841064 0 0 0
-1.48011863231658936 0.29661715030670166 2.44191813468933105 0 0 0
-1.40659856796264648 0.297160536050796509 2.48065757751464844 0 0 0
-1.33135795593261719 0.297740340232849121 2.51758384704589844 0 0 0
-1.25955820083618164 0.298247277736663818 2.55813694000244141 0 0 0
-1.22021746635437012 0.29857364296913147 2.57478642463684082 0 0 0
-1.48691534996032715 0.576513707637786865 2.44798707962036133 0 0 0
-1.58219099044799805 0.295817524194717407 2.39331865310668945 0 0 0
-1.58554673194885254 0.575786948204040527 2.39576077461242676 0 0 0
-1.52281522750854492 0.576260268688201904 2.42771053314208984 0 0 0
-1.78280138969421387 0.294261425733566284 2.29602718353271484 0 0 0
-1.59469997882843018 0.295710980892181396 2.38834238052368164 0 0 0
-1.59757637977600098 0.535684764385223389 2.39043545722961426 0 0 0
-2.07860255241394043 0.292051464319229126 2.14288234710693359 0 0 0
-1.96746206283569336 0.292884767055511475 2.20008492469787598 0 0 0
-1.92812132835388184 0.293211102485656738 2.21673440933227539 0 0 0
-1.85460114479064941 0.293754488229751587 2.25547409057617188 0 0 0
-1.81698083877563477 0.294044405221939087 2.27393722534179688 0 0 0
-2.08195829391479492 0.572020947933197021 2.1453242301940918 0 0 0
-1.97253823280334473 0.572817742824554443 2.20434045791625977 0 0 0
-2.37612390518188477 0.289805084466934204 1.99155092239379883 0 0 0
-2.22908353805541992 0.290891826152801514 2.0690300464630127 0 0 0
-2.15384316444396973 0.291471660137176514 2.1059563159942627 0 0 0
-2.11794328689575195 0.291725128889083862 2.12623286247253418 0 0 0
-2.33702301979064941 0.310129225254058838 2.00837492942810059 0 0 0
-2.08041620254516602 0.292044728994369507 2.14116168022155762 0 0 0
-2.34088993072509766 0.330113589763641357 2.00510787963867188 0 0 0
-2.30423927307128906 0.570354342460632324 2.03091883659362793 0 0 0
-2.11957859992980957 0.571731030941009521 2.1268610954284668 0 0 0
-2.08739924430847168 0.572000741958618164 2.14016222953796387 0 0 0
-2.5895230770111084 0.288231581449508667 1.87868058681488037 0 0 0
-2.51800298690795898 0.288827627897262573 1.90863120555877686 0 0 0
-2.47694182395935059 0.289190411567687988 1.92346715927124023 0 0 0
-2.44276237487792969 0.289407461881637573 1.94555723667144775 0 0 0
-2.52307939529418945 0.56876063346862793 1.91288661956787109 0 0 0
-2.67536592483520508 0.287522226572036743 1.8420330286026001 0 0 0
-2.59840488433837891 0.288138508796691895 1.87714564800262451 0 0 0
-2.67872166633605957 0.567491710186004639 1.84447503089904785 0 0 0
-2.6017606258392334 0.568107962608337402 1.87958753108978271 0 0 0
-2.82756733894348145 0.286326169967651367 1.76999437808990479 0 0 0
-2.81687211990356445 0.286425977945327759 1.77324998378753662 0 0 0
-2.71298623085021973 0.287232339382171631 1.82357001304626465 0 0 0
-2.71634197235107422 0.567201793193817139 1.82601189613342285 0 0 0
-3.300811767578125 0.522420227527618408 1.5704796314239502 0 0 0
-3.14564895629882812 0.563684821128845215 1.63924014568328857 0 0 0
-1.47972428798675537 -0.0234208200126886368 2.44275426864624023 0 0 0
-1.40448367595672607 -0.0228410009294748306 2.47968053817749023 0 0 0
-1.32924318313598633 -0.0222611818462610245 2.51660656929016113 0 0 0
-1.25572299957275391 -0.0217178016901016235 2.55534625053405762 0 0 0
-1.21810269355773926 -0.0214278921484947205 2.57380914688110352 0 0 0
-1.33937406539916992 0.217685699462890625 2.51181697845458984 0 0 0
-1.48135972023010254 0.256585061550140381 2.44338274002075195 0 0 0
-1.51562416553497314 -0.0236742906272411346 2.42247772216796875 0 0 0
-1.51898002624511719 0.256295144557952881 2.42491960525512695 0 0 0
-1.77896618843078613 -0.0257036574184894562 2.29323649406433105 0 0 0
-1.69856441020965576 -0.0250145196914672852 2.3247220516204834 0 0 0
-1.62676465511322021 -0.0245075784623622894 2.36527514457702637 0 0 0
-1.78232204914093018 0.254265785217285156 2.29567837715148926 0 0 0
-1.59250009059906006 0.25575178861618042 2.38618016242980957 0 0 0
-2.07114005088806152 -0.0279001500457525253 2.14353299140930176 0 0 0
-1.96534717082977295 -0.0271167643368244171 2.19910764694213867 0 0 0
-1.85248637199401855 -0.0262470357120037079 2.25449681282043457 0 0 0
-1.81486606597900391 -0.0259571261703968048 2.27295994758605957 0 0 0
-2.07582998275756836 0.212066933512687683 2.1439054012298584 0 0 0
-1.96526217460632324 0.252925574779510498 2.19792270660400391 0 0 0
-2.37228870391845703 -0.0301600117236375809 1.98876023292541504 0 0 0
-2.29704809188842773 -0.0295801926404237747 2.02568626403808594 0 0 0
-2.18590760231018066 -0.0287469029426574707 2.08288884162902832 0 0 0
-2.11238765716552734 -0.028203524649143219 2.1216285228729248 0 0 0
-2.33330750465393066 0.000163064032676629722 2.00567126274108887 0 0 0
-2.19098401069641113 0.251186102628707886 2.08714437484741211 0 0 0
-2.58931517601013184 -0.0317469798028469086 1.87244844436645508 0 0 0
-2.51588821411132812 -0.0311738923192024231 1.90765392780303955 0 0 0
-2.43720674514770508 -0.0305211935192346573 1.94095289707183838 0 0 0
-2.55618762969970703 0.0484910309314727783 1.89170205593109131 0 0 0
-2.59304642677307129 0.128228828310966492 1.87212324142456055 0 0 0
-2.59267091751098633 0.248222470283508301 1.87489044666290283 0 0 0
-2.55686426162719727 0.248505651950836182 1.8916327953338623 0 0 0
-2.51752352714538574 0.248832002282142639 1.90828227996826172 0 0 0
-2.44056272506713867 0.249448254704475403 1.94339489936828613 0 0 0
-2.66981029510498047 -0.0324064083397388458 1.83742880821228027 0 0 0
-2.5928492546081543 -0.0317901521921157837 1.87254130840301514 0 0 0
-2.59428739547729492 0.0881967544555664062 1.87358784675598145 0 0 0
-2.67316603660583496 0.247563034296035767 1.83987069129943848 0 0 0
-2.59620499610900879 0.248179301619529724 1.87498331069946289 0 0 0
-2.81847763061523438 -0.0335593149065971375 1.7652972936630249 0 0 0
-2.70743060111999512 -0.0326963178813457489 1.81896579265594482 0 0 0
-2.78774738311767578 0.246656879782676697 1.78629505634307861 0 0 0
-2.71250677108764648 0.247236698865890503 1.82322120666503906 0 0 0
-1.4775245189666748 -0.063380017876625061 2.44059205055236816 0 0 0
-1.58331727981567383 -0.06416340172290802 2.38501715660095215 0 0 0
-1.77685141563415527 -0.345705181360244751 2.29225921630859375 0 0 0
-1.66054964065551758 -0.344762563705444336 2.34402132034301758 0 0 0
-1.71059393882751465 -0.0651166960597038269 2.31939697265625 0 0 0
-1.77848672866821289 -0.0656992942094802856 2.29288768768310547 0 0 0
-1.92733252048492432 -0.346864819526672363 2.21840715408325195 0 0 0
-1.81305086612701416 -0.32096138596534729 2.2722008228302002 0 0 0
-1.8532480001449585 -0.106274746358394623 2.25561261177062988 0 0 0
-2.37017393112182617 -0.350161522626876831 1.98778295516967773 0 0 0
-2.31641721725463867 -0.34975162148475647 2.0146636962890625 0 0 0
-2.22141313552856445 -0.34903833270072937 2.06344866752624512 0 0 0
-2.37209153175354004 -0.190178990364074707 1.98917829990386963 0 0 0
-2.3423917293548584 -0.149860963225364685 1.99403917789459229 0 0 0
-2.37180924415588379 -0.0701556503772735596 1.9884113073348999 0 0 0
-2.1871488094329834 -0.0687789767980575562 2.08435368537902832 0 0 0
-2.51377344131469727 -0.351175427436828613 1.90667665004730225 0 0 0
-2.46927142143249512 -0.350739747285842896 1.91788566112518311 0 0 0
-2.40435338020324707 -0.350378572940826416 1.96569287776947021 0 0 0
-2.40158915519714355 -0.150291070342063904 1.96199655532836914 0 0 0
-2.58883571624755859 -0.071742616593837738 1.87209963798522949 0 0 0
-2.55474948883056641 -0.0714958757162094116 1.890655517578125 0 0 0
-2.51540875434875488 -0.0711695253849029541 1.90730512142181396 0 0 0
-2.43672752380371094 -0.070516832172870636 1.94060409069061279 0 0 0
-2.66769552230834961 -0.352407932281494141 1.83645153045654297 0 0 0
-2.59073448181152344 -0.351791679859161377 1.87156414985656738 0 0 0
-2.59236979484558105 -0.0717857852578163147 1.87219250202178955 0 0 0
-2.96521687507629395 -0.35465434193611145 1.6851201057434082 0 0 0
-2.85579681396484375 -0.353857487440109253 1.74413633346557617 0 0 0
-2.81645607948303223 -0.353531122207641602 1.76078581809997559 0 0 0
-2.705230712890625 -0.0726555138826370239 1.81680333614349365 0 0 0
-3.11741852760314941 -0.355850398540496826 1.61308145523071289 0 0 0
-3.0673823356628418 -0.355424255132675171 1.63298666477203369 0 0 0
-3.00283718109130859 -0.354944229125976562 1.66665709018707275 0 0 0
-3.04897451400756836 -0.075374014675617218 1.65607655048370361 0 0 0
-1.25493419170379639 -0.661793708801269531 2.55701875686645508 0 0 0
-1.66007030010223389 -0.384758204221725464 2.34367251396179199 0 0 0
-2.47231793403625488 -0.670850574970245361 1.92234897613525391 0 0 0
-2.43469762802124023 -0.670560657978057861 1.94081199169158936 0 0 0
-2.40395903587341309 -0.670416533946990967 1.96652913093566895 0 0 0
-2.55453014373779297 -0.66407698392868042 1.89274239540100098 0 0 0
-2.66386008262634277 -0.672372996807098389 1.83366072177886963 0 0 0
-2.55616044998168945 -0.67161262035369873 1.89449048042297363 0 0 0
-2.66873931884765625 -0.552459001541137695 1.83833432197570801 0 0 0
-2.96138167381286621 -0.674619436264038086 1.68232941627502441 0 0 0
-2.81434130668640137 -0.673532664775848389 1.75980865955352783 0 0 0
-2.77672100067138672 -0.673242747783660889 1.77827167510986328 0 0 0
-2.73910069465637207 -0.672952830791473389 1.79673469066619873 0 0 0
-2.81292057037353516 -0.648498952388763428 1.75821316242218018 0 0 0
-2.96329927444458008 -0.514636874198913574 1.68372476100921631 0 0 0
-2.93007850646972656 -0.434428572654724121 1.70651257038116455 0 0 0
-2.96645784378051758 -0.394686400890350342 1.68658483028411865 0 0 0
-2.81960391998291016 -0.393540233373641968 1.75699567794799805 0 0 0
-3.15120363235473633 -0.676105380058288574 1.5918276309967041 0 0 0
-3.10670161247253418 -0.675669729709625244 1.60303664207458496 0 0 0
-3.03490185737609863 -0.675162792205810547 1.64358973503112793 0 0 0
-2.99900197982788086 -0.674909353256225586 1.66386628150939941 0 0 0
-3.11693906784057617 -0.395846039056777954 1.6127326488494873 0 0 0
-3.00407814979553223 -0.394976317882537842 1.6681218147277832 0 0 0
-1.24001491069793701 -0.901512444019317627 2.54223108291625977 0 0 0
-1.24929356575012207 -0.70168006420135498 2.55122923851013184 0 0 0
-2.47116184234619141 -0.910860836505889893 1.92206943035125732 0 0 0
-2.45197105407714844 -0.870702028274536133 1.93074297904968262 0 0 0
-2.51270246505737305 -0.87122797966003418 1.90758228302001953 0 0 0
-2.51462006568908691 -0.711245477199554443 1.90897762775421143 0 0 0
-2.55156373977661133 -0.911549985408782959 1.89058387279510498 0 0 0
-2.66366291046142578 -0.832391977310180664 1.83407890796661377 0 0 0
-2.55568122863769531 -0.711608231067657471 1.89414167404174805 0 0 0
-2.9420626163482666 -0.994256556034088135 1.66321694850921631 0 0 0
-2.9078831672668457 -0.994039535522460938 1.68530702590942383 0 0 0
-2.87886500358581543 -0.993931829929351807 1.71283769607543945 0 0 0
-2.95256495475769043 -0.979476809501647949 1.67422890663146973 0 0 0
-2.95802593231201172 -0.954588890075683594 1.67988741397857666 0 0 0
-2.8845057487487793 -0.954045474529266357 1.71862709522247314 0 0 0
-2.92976665496826172 -0.914396405220031738 1.69716441631317139 0 0 0
-2.81194424629211426 -0.873510837554931641 1.7580643892288208 0 0 0
-3.05515241622924805 -0.995638012886047363 1.66618835926055908 0 0 0
-3.02888011932373047 -0.995239973068237305 1.65665638446807861 0 0 0
-2.95601248741149902 -0.994488656520843506 1.67065668106079102 0 0 0
-2.99688720703125 -0.994910836219787598 1.66288912296295166 0 0 0
-3.08465003967285156 -0.955750107765197754 1.63900649547576904 0 0 0
-3.05735230445861816 -0.955678820610046387 1.6683506965637207 0 0 0
-3.02210497856140137 -0.955217421054840088 1.66388797760009766 0 0 0
-2.99392580986022949 -0.954842329025268555 1.65961086750030518 0 0 0
-3.04750919342041016 -0.915464580059051514 1.65781843662261963 0 0 0
-3.10602498054504395 -0.875684380531311035 1.60310590267181396 0 0 0
-3.03938651084899902 -0.875286757946014404 1.64909958839416504 0 0 0
-2.99804306030273438 -0.754900574684143066 1.66316866874694824 0 0 0
-3.10278129577636719 -0.715592503547668457 1.5990607738494873 0 0 0
-2.95229530334472656 -1.00197434425354004 1.67403268814086914 0 0 0
-1.32800197601318359 0.797633767127990723 2.5411524772644043 0 0 0
-1.3173065185546875 0.797733545303344727 2.54440808296203613 0 0 0
3 9 2 8
3 8 2 7
3 7 2 3
3 5 4 8
3 8 4 10
3 6 5 8
3 11 6 7
3 7 6 8
3 9 8 10
3 20 13 14
3 20 14 19
3 19 14 15
3 22 18 19
3 19 18 20
3 22 19 23
3 29 27 28
3 68 48 71
3 84 50 85
3 89 52 87
3 87 52 90
3 90 53 66
3 66 53 70
3 58 54 76
3 76 54 73
3 73 54 72
3 72 54 124
3 60 58 59
3 59 58 88
3 88 58 78
3 78 58 76
3 60 59 61
3 61 59 63
3 63 59 88
3 62 61 64
3 64 61 63
3 69 62 68
3 68 62 64
3 64 63 65
3 65 63 88
3 66 64 65
3 68 64 67
3 67 64 66
3 90 65 88
3 66 65 90
3 67 66 70
3 69 68 71
3 76 73 74
3 74 73 100
3 75 74 104
3 104 74 103
3 103 74 100
3 76 74 75
3 78 75 77
3 77 75 104
3 76 75 78
3 79 77 81
3 81 77 104
3 78 77 79
3 80 78 79
3 88 78 80
3 82 79 81
3 80 79 86
3 87 80 86
3 88 80 87
3 82 81 83
3 87 86 89
3 88 87 90
3 92 91 93
3 95 92 93
3 95 93 96
3 96 93 94
3 98 97 99
3 100 98 103
3 103 98 99
3 103 99 102
3 102 99 101
3 107 106 128
3 110 109 112
3 112 109 111
3 117 114 119
3 122 117 119
3 118 117 122
3 122 119 120
3 122 120 123
3 123 120 121
3 121 120 125
3 123 121 125
3 124 122 123
3 124 123 125
3 127 124 125
3 127 125 126
3 162 129 130
3 167 132 133
3 133 132 138
3 138 132 145
3 145 132 172
3 172 132 167
3 134 133 139
3 139 133 137
3 137 133 138
3 167 133 168
3 168 133 169
3 169 133 134
3 136 134 140
3 140 134 139
3 140 135 136
3 136 135 170
3 139 137 138
3 148 138 145
3 175 141 142
3 142 141 147
3 147 141 149
3 149 141 154
3 154 141 151
3 151 141 178
3 178 141 175
3 143 142 146
3 146 142 147
3 175 142 176
3 176 142 143
3 144 143 146
3 176 143 173
3 173 143 177
3 177 143 144
3 145 144 148
3 148 144 146
3 177 144 145
3 177 145 172
3 149 146 147
3 150 149 154
3 155 150 154
3 154 151 152
3 152 151 157
3 157 151 178
3 154 152 159
3 159 152 158
3 158 152 157
3 159 153 154
3 154 153 155
3 155 153 160
3 157 156 158
3 181 156 157
3 181 157 182
3 182 157 178
3 164 163 168
3 168 163 165
3 165 163 171
3 166 164 169
3 169 164 168
3 172 165 171
3 168 165 167
3 167 165 172
3 177 172 173
3 176 174 175
3 175 174 178
3 182 178 179
3 182 179 180
3 182 180 181
3 218 184 185
3 185 184 188
3 188 184 191
3 191 184 221
3 221 184 218
3 186 185 188
3 218 185 215
3 215 185 186
3 189 186 188
3 215 186 216
3 216 186 187
3 216 187 217
3 189 188 191
3 192 189 191
3 220 190 191
3 195 190 220
3 220 191 221
3 222 193 194
3 199 193 229
3 229 193 222
3 224 195 220
3 230 197 198
3 201 197 241
3 241 197 230
3 230 198 231
3 231 198 227
3 227 198 199
3 227 199 228
3 228 199 229
3 240 201 241
3 207 204 246
3 249 206 207
3 210 206 209
3 209 206 254
3 254 206 249
3 249 207 250
3 250 207 246
3 209 208 210
3 251 208 252
3 252 208 209
3 252 209 254
3 256 211 212
3 263 213 214
3 214 213 218
3 218 213 221
3 221 213 219
3 219 213 265
3 265 213 263
3 215 214 218
3 263 214 215
3 263 215 262
3 262 215 216
3 262 216 217
3 262 217 261
3 221 219 224
3 224 219 223
3 223 219 265
3 224 220 221
3 229 222 274
3 274 222 269
3 267 223 270
3 270 223 265
3 275 225 276
3 276 225 226
3 226 225 230
3 230 225 241
3 241 225 240
3 240 225 237
3 237 225 275
3 227 226 231
3 231 226 230
3 276 226 227
3 276 227 273
3 273 227 228
3 273 228 274
3 274 228 229
3 236 232 238
3 238 232 239
3 245 232 291
3 234 233 239
3 239 233 238
3 238 233 236
3 278 233 282
3 282 233 234
3 235 234 240
3 240 234 239
3 282 234 279
3 279 234 235
3 237 235 240
3 279 235 275
3 275 235 237
3 288 242 243
3 243 242 246
3 246 242 250
3 250 242 248
3 248 242 288
3 244 243 246
3 288 243 289
3 289 243 290
3 290 243 244
3 290 244 291
3 291 244 245
3 295 247 248
3 248 247 250
3 250 247 249
3 249 247 254
3 254 247 253
3 253 247 300
3 300 247 295
3 295 248 296
3 296 248 288
3 299 251 252
3 253 252 254
3 299 252 253
3 299 253 300
3 301 257 258
3 258 257 263
3 263 257 265
3 265 257 264
3 264 257 302
3 302 257 301
3 259 258 263
3 301 258 259
3 260 259 262
3 262 259 263
3 261 260 262
3 306 266 305
3 305 266 267
3 267 266 269
3 269 266 274
3 274 266 309
3 309 266 306
3 268 267 270
3 305 267 268
3 272 271 276
3 276 271 275
3 275 271 280
3 273 272 276
3 279 275 280
3 315 277 281
3 291 277 285
3 285 277 324
3 324 277 315
3 279 278 282
3 281 278 314
3 314 278 316
3 316 278 279
3 316 279 280
3 315 281 314
3 321 283 284
3 284 283 286
3 286 283 294
3 294 283 293
3 293 283 321
3 285 284 290
3 290 284 286
3 321 284 322
3 322 284 323
3 323 284 285
3 291 285 290
3 323 285 324
3 289 286 287
3 287 286 294
3 290 286 289
3 296 287 294
3 289 287 296
3 296 288 289
3 293 292 296
3 296 292 295
3 295 292 300
3 300 292 298
3 298 292 331
3 294 293 296
3 327 293 321
3 298 297 299
3 331 297 298
3 300 298 299
3 304 303 306
3 306 303 309
3 309 303 308
3 305 304 306
3 311 310 313
3 313 310 320
3 320 310 319
3 319 310 340
3 312 311 316
3 316 311 314
3 314 311 313
3 314 313 320
3 315 314 320
3 324 315 320
3 318 317 322
3 322 317 327
3 327 317 326
3 319 318 324
3 324 318 323
3 323 318 322
3 320 319 324
3 327 321 322
3 344 325 326
3 326 325 327
3 352 328 329
3 334 328 359
3 359 328 352
3 352 329 351
3 351 329 353
3 353 329 330
3 333 332 335
3 358 332 333
3 334 333 335
3 358 333 334
3 358 334 359
3 341 338 343
3 343 338 365
3 365 338 364
3 364 338 339
3 364 339 363
3 363 339 340
3 344 341 343
3 367 342 343
3 343 342 344
3 367 343 368
3 368 343 365
3 375 345 346
3 346 345 351
3 351 345 350
3 350 345 357
3 357 345 388
3 388 345 375
3 347 346 349
3 349 346 351
3 375 346 376
3 376 346 347
3 348 347 353
3 353 347 349
3 376 347 348
3 353 349 351
3 359 350 357
3 351 350 352
3 352 350 359
3 355 354 358
3 356 355 358
3 389 355 356
3 357 356 359
3 359 356 358
3 389 356 387
3 387 356 357
3 387 357 388
3 363 362 364
3 365 364 368
3 368 364 366
3 368 366 367
3 390 369 370
3 370 369 374
3 374 369 372
3 372 369 379
3 379 369 390
3 371 370 374
3 376 371 374
3 374 372 375
3 375 372 373
3 373 372 379
3 384 373 380
3 380 373 379
3 375 373 388
3 388 373 384
3 376 374 375
3 378 377 382
3 380 378 384
3 384 378 383
3 383 378 382
3 380 379 390
3 382 381 385
3 383 382 385
3 387 383 385
3 384 383 388
3 388 383 387
3 387 385 386
3 387 386 389
