ply
format ascii 1.0
comment Automatically gnerated by model-converter
element vertex 233
property float x
property float y
property float z
property uchar red
property uchar green
property uchar blue
element face 416
property list uchar int vertex_indices
end_header
0.475647240877151489 0.696561813354492188 -2.21161890029907227 0 0 0
0.329566597938537598 0.691217243671417236 -1.32685434818267822 0 0 0
0.188732340931892395 0.668231427669525146 -1.17831993103027344 0 0 0
0.212589308619499207 0.668229818344116211 -1.14534878730773926 0 0 0
0.250059783458709717 0.681018352508544922 -1.12677669525146484 0 0 0
0.284990787506103516 0.669129669666290283 -1.14901936054229736 0 0 0
0.310703754425048828 0.669705986976623535 -1.17975640296936035 0 0 0
0.312373310327529907 0.670343279838562012 -1.25053298473358154 0 0 0
0.302249699831008911 0.67313617467880249 -1.29799067974090576 0 0 0
0.241128131747245789 0.708333194255828857 -1.11746931076049805 0 0 0
0.163837537169456482 0.735213935375213623 -1.15234196186065674 0 0 0
0.293579578399658203 0.709158957004547119 -1.14006721973419189 0 0 0
0.334030479192733765 0.710300862789154053 -1.21539950370788574 0 0 0
0.339420557022094727 0.710921943187713623 -1.27920055389404297 0 0 0
0.22860582172870636 0.748073697090148926 -1.10442578792572021 0 0 0
0.288591504096984863 0.74883735179901123 -1.10953855514526367 0 0 0
0.163657769560813904 0.750212252140045166 -1.15221118927001953 0 0 0
0.249190866947174072 0.753510475158691406 -1.1261444091796875 0 0 0
0.338483512401580811 0.749894082546234131 -1.16213059425354004 0 0 0
0.305795639753341675 0.749201714992523193 -1.12767374515533447 0 0 0
0.246087834239006042 0.764459967613220215 -1.2391512393951416 0 0 0
0.275076091289520264 0.767067432403564453 -1.21159875392913818 0 0 0
0.355730026960372925 0.750829637050628662 -1.24569475650787354 0 0 0
0.355916470289230347 0.750770211219787598 -1.23862636089324951 0 0 0
0.342381983995437622 0.750990450382232666 -1.2824786901473999 0 0 0
0.302602708339691162 0.767650485038757324 -1.2406151294708252 0 0 0
0.301111102104187012 0.768125772476196289 -1.29716217517852783 0 0 0
0.265975534915924072 0.788871049880981445 -1.1439744234085083 0 0 0
0.190555170178413391 0.803289592266082764 -1.18076968193054199 0 0 0
0.219633325934410095 0.798397839069366455 -1.15328264236450195 0 0 0
0.218051835894584656 0.806372344493865967 -1.20976424217224121 0 0 0
0.247070059180259705 0.806480050086975098 -1.18223357200622559 0 0 0
0.303614884614944458 0.8071708083152771 -1.18371927738189697 0 0 0
0.332752972841262817 0.797279596328735352 -1.15627586841583252 0 0 0
0.316842168569564819 0.790201842784881592 -1.2266535758972168 0 0 0
0.367624044418334961 0.790390372276306152 -1.17847490310668945 0 0 0
0.346182405948638916 0.790791630744934082 -1.25394928455352783 0 0 0
0.381014436483383179 0.790800690650939941 -1.20711982250213623 0 0 0
0.369200378656387329 0.791057407855987549 -1.25278568267822266 0 0 0
0.358698099851608276 0.805837094783782959 -1.24177372455596924 0 0 0
0.0591334514319896698 0.66684877872467041 -1.19790291786193848 0 0 0
0.0397427715361118317 0.666596472263336182 -1.1956251859664917 0 0 0
0.00579213164746761322 0.666891217231750488 -1.27607572078704834 0 0 0
0.0365307629108428955 0.667035341262817383 -1.25035858154296875 0 0 0
0.0499154441058635712 0.679313719272613525 -1.20639729499816895 0 0 0
0.00504633504897356033 0.667128860950469971 -1.30434930324554443 0 0 0
0.0325729586184024811 0.667711853981018066 -1.33336567878723145 0 0 0
0.0193457044661045074 0.684680819511413574 -1.29043138027191162 0 0 0
0.048393886536359787 0.682288765907287598 -1.26292252540588379 0 0 0
0.0775918811559677124 0.667398154735565186 -1.23552262783050537 0 0 0
0.0468423664569854736 0.687763571739196777 -1.31942582130432129 0 0 0
0.0759504735469818115 0.680372059345245361 -1.29196059703826904 0 0 0
0.0310813654214143753 0.668187201023101807 -1.38991260528564453 0 0 0
0.208817958831787109 0.668846964836120605 -1.22128736972808838 0 0 0
0.205512717366218567 0.669315516948699951 -1.27955508232116699 0 0 0
0.057633373886346817 0.668496131896972656 -1.38884198665618896 0 0 0
0.0866515934467315674 0.668603837490081787 -1.36131131649017334 0 0 0
0.0453807376325130463 0.68573915958404541 -1.37599468231201172 0 0 0
0.0743989571928977966 0.685846865177154541 -1.34846401214599609 0 0 0
0.231225714087486267 0.669891834259033203 -1.31029200553894043 0 0 0
0.166116371750831604 0.708265125751495361 -1.21275591850280762 0 0 0
0.177506700158119202 0.708728134632110596 -1.25018990039825439 0 0 0
0.203219681978225708 0.709304451942443848 -1.28092682361602783 0 0 0
0.136483147740364075 0.747611582279205322 -1.17804300785064697 0 0 0
0.124109722673892975 0.748046517372131348 -1.24491393566131592 0 0 0
0.133028104901313782 0.760578811168670654 -1.23620164394378662 0 0 0
0.148009076714515686 0.748616039752960205 -1.27737164497375488 0 0 0
0.177349328994750977 0.749205827713012695 -1.30466735363006592 0 0 0
0.131386697292327881 0.77355271577835083 -1.29263961315155029 0 0 0
0.158943280577659607 0.771636068820953369 -1.3216778039932251 0 0 0
0.188081353902816772 0.761744856834411621 -1.29423427581787109 0 0 0
0.217069610953330994 0.764352262020111084 -1.26668190956115723 0 0 0
0.23026689887046814 0.749883115291595459 -1.30959439277648926 0 0 0
0.286811739206314087 0.750573813915252686 -1.31108009815216064 0 0 0
0.120884433388710022 0.788332462310791016 -1.28162765502929688 0 0 0
0.16156691312789917 0.800682127475738525 -1.20832216739654541 0 0 0
0.120325088500976562 0.788510680198669434 -1.30283284187316895 0 0 0
0.146038070321083069 0.789086997509002686 -1.33356976509094238 0 0 0
0.172268033027648926 0.788913905620574951 -1.27767276763916016 0 0 0
0.169056028127670288 0.789352774620056152 -1.33240628242492676 0 0 0
0.160015404224395752 0.806156933307647705 -1.26482558250427246 0 0 0
0.189033612608909607 0.806264638900756836 -1.23729491233825684 0 0 0
0.158553764224052429 0.804132521152496338 -1.32139432430267334 0 0 0
0.297368735074996948 0.351119726896286011 -1.36423289775848389 0 0 0
0.310064196586608887 0.351166844367980957 -1.35218822956085205 0 0 0
0.277839183807373047 0.412581473588943481 -1.27124178409576416 0 0 0
0.27074781060218811 0.429933816194534302 -1.26383507251739502 0 0 0
0.282790690660476685 0.430188894271850586 -1.27652966976165771 0 0 0
0.24985659122467041 0.574005424976348877 -1.18426120281219482 0 0 0
0.277383208274841309 0.574588418006896973 -1.21327757835388184 0 0 0
0.275861650705337524 0.577563464641571045 -1.26980280876159668 0 0 0
0.241074740886688232 0.588821589946746826 -1.17506277561187744 0 0 0
0.240608617663383484 0.5889701247215271 -1.1927337646484375 0 0 0
0.2569313645362854 0.589030683040618896 -1.17724776268005371 0 0 0
0.26632159948348999 0.589546382427215576 -1.22347080707550049 0 0 0
0.286271631717681885 0.589620471000671387 -1.20454347133636475 0 0 0
0.285805493593215942 0.58976900577545166 -1.22221434116363525 0 0 0
0.247915551066398621 0.61197662353515625 -1.24048113822937012 0 0 0
0.226832032203674316 0.628525674343109131 -1.16020584106445312 0 0 0
0.264452308416366577 0.628815591335296631 -1.14174270629882812 0 0 0
0.192203119397163391 0.665804564952850342 -1.1819688081741333 0 0 0
0.221461042761802673 0.64591449499130249 -1.15461254119873047 0 0 0
0.240129217505455017 0.62896573543548584 -1.19238495826721191 0 0 0
0.285792231559753418 0.629616081714630127 -1.20419454574584961 0 0 0
0.279936045408248901 0.62914353609085083 -1.15806448459625244 0 0 0
0.288766920566558838 0.629837512969970703 -1.22549259662628174 0 0 0
0.219879567623138428 0.653888940811157227 -1.21109414100646973 0 0 0
0.289741545915603638 0.630111634731292725 -1.25557959079742432 0 0 0
0.2855549156665802 0.630276381969451904 -1.28022611141204834 0 0 0
0.29774165153503418 0.35100090503692627 -1.35009610652923584 0 0 0
0.247808784246444702 0.372953444719314575 -1.35566830635070801 0 0 0
0.234903573989868164 0.390404433012008667 -1.36756026744842529 0 0 0
0.258480876684188843 0.39049193263053894 -1.34519171714782715 0 0 0
0.235556155443191528 0.390196472406387329 -1.34282100200653076 0 0 0
0.257921516895294189 0.390670180320739746 -1.36639678478240967 0 0 0
0.219832718372344971 0.4098663330078125 -1.3263249397277832 0 0 0
0.247419267892837524 0.405449897050857544 -1.35538482666015625 0 0 0
0.205829709768295288 0.429572641849517822 -1.31164228916168213 0 0 0
0.164240136742591858 0.453695356845855713 -1.26789975166320801 0 0 0
0.205083906650543213 0.429810285568237305 -1.33991575241088867 0 0 0
0.23228849470615387 0.429911285638809204 -1.31410574913024902 0 0 0
0.270374894142150879 0.430052638053894043 -1.27797186374664307 0 0 0
0.231635913252830505 0.430119216442108154 -1.33884513378143311 0 0 0
0.219383284449577332 0.447362244129180908 -1.32599782943725586 0 0 0
0.0246060583740472794 0.493750900030136108 -1.17899429798126221 0 0 0
0.0827323868870735168 0.486467152833938599 -1.12399840354919434 0 0 0
0.110288970172405243 0.484550446271896362 -1.15303659439086914 0 0 0
0.153737887740135193 0.468475103378295898 -1.25688779354095459 0 0 0
0.108767412602901459 0.487525492906570435 -1.20956182479858398 0 0 0
0.15317852795124054 0.468653321266174316 -1.27809286117553711 0 0 0
0.173128560185432434 0.468727380037307739 -1.25916552543640137 0 0 0
0.134712561964988708 0.49608302116394043 -1.2950596809387207 0 0 0
0.163910552859306335 0.481192350387573242 -1.26765990257263184 0 0 0
0.162179261445999146 0.501665472984313965 -1.32403242588043213 0 0 0
0.191586986184120178 0.469276756048202515 -1.29678523540496826 0 0 0
0.0970017910003662109 0.506518840789794922 -1.11005866527557373 0 0 0
-0.00486160069704055786 0.531139075756072998 -1.20619797706604004 0 0 0
-0.00629326887428760529 0.526614964008331299 -1.26278853416442871 0 0 0
0.121223181486129761 0.507570445537567139 -1.19734275341033936 0 0 0
0.0925270095467567444 0.507944762706756592 -1.27969968318939209 0 0 0
0.145122528076171875 0.508139967918395996 -1.22980034351348877 0 0 0
0.144656404852867126 0.50828850269317627 -1.24747133255004883 0 0 0
0.0777182728052139282 0.532888174057006836 -1.29324698448181152 0 0 0
0.12549455463886261 0.508547961711883545 -1.30355405807495117 0 0 0
0.141817301511764526 0.508608579635620117 -1.28806805610656738 0 0 0
0.105304822325706482 0.528471767902374268 -1.32230699062347412 0 0 0
0.134442895650863647 0.51858055591583252 -1.29486346244812012 0 0 0
0.162029445171356201 0.514164149761199951 -1.32392346858978271 0 0 0
0.100149668753147125 0.5465279221534729 -1.10626852512359619 0 0 0
-0.0210420805960893631 0.546558916568756104 -1.27637946605682373 0 0 0
-0.0202962830662727356 0.546321272850036621 -1.24810600280761719 0 0 0
-0.00543089210987091064 0.578633904457092285 -1.20578372478485107 0 0 0
0.00648454483598470688 0.547141969203948975 -1.30539584159851074 0 0 0
0.120743781328201294 0.547566056251525879 -1.19699382781982422 0 0 0
0.1464567631483078 0.548142373561859131 -1.22773087024688721 0 0 0
0.11859961599111557 0.548249304294586182 -1.27828013896942139 0 0 0
0.145897418260574341 0.548320591449737549 -1.24893605709075928 0 0 0
0.0773886814713478088 0.560385167598724365 -1.29300713539123535 0 0 0
0.117760591208934784 0.548516690731048584 -1.31008791923522949 0 0 0
0.117108017206192017 0.548724651336669922 -1.33482718467712402 0 0 0
0.0760469064116477966 0.548361837863922119 -1.3496631383895874 0 0 0
0.104855380952358246 0.565967679023742676 -1.32197988033294678 0 0 0
0.0271247159689664841 0.586254239082336426 -1.17474627494812012 0 0 0
-0.0197078455239534378 0.586561262607574463 -1.27430999279022217 0 0 0
0.0814140215516090393 0.596455156803131104 -1.1230391263961792 0 0 0
0.0507244355976581573 0.611821115016937256 -1.2069859504699707 0 0 0
-0.0230130776762962341 0.587029874324798584 -1.33257758617401123 0 0 0
0.0335317663848400116 0.587720632553100586 -1.33406329154968262 0 0 0
0.0581345409154891968 0.587481319904327393 -1.27281856536865234 0 0 0
0.0600837729871273041 0.588029563426971436 -1.33299267292022705 0 0 0
0.118120208382606506 0.588244974613189697 -1.2779313325881958 0 0 0
0.107359170913696289 0.605012655258178711 -1.20853710174560547 0 0 0
0.104346014559268951 0.608463048934936523 -1.3216092586517334 0 0 0
0.266643643379211426 0.590028464794158936 -1.2782970666885376 0 0 0
0.0302725899964570999 0.62626338005065918 -1.17095613479614258 0 0 0
0.0629180893301963806 0.626384556293487549 -1.139984130859375 0 0 0
0.055985577404499054 0.626839637756347656 -1.20169317722320557 0 0 0
0.090444713830947876 0.626967549324035645 -1.16900050640106201 0 0 0
0.0146447848528623581 0.626565992832183838 -1.22713172435760498 0 0 0
0.00627153506502509117 0.626895546913146973 -1.27642464637756348 0 0 0
0.0608671456575393677 0.627038121223449707 -1.21773624420166016 0 0 0
0.0518564768135547638 0.641342520713806152 -1.15017735958099365 0 0 0
0.0793831050395965576 0.641925573348999023 -1.17919361591339111 0 0 0
0.00552573800086975098 0.627133190631866455 -1.30469810962677002 0 0 0
0.0853258371353149414 0.627429425716400146 -1.22898876667022705 0 0 0
0.0330523625016212463 0.627716243267059326 -1.33371448516845703 0 0 0
0.0542143099009990692 0.627404093742370605 -1.26884269714355469 0 0 0
0.0849529430270195007 0.627548277378082275 -1.2431255578994751 0 0 0
0.0596043691039085388 0.628025174140930176 -1.33264374732971191 0 0 0
0.0903430059552192688 0.628169357776641846 -1.30692660808563232 0 0 0
0.0895972028374671936 0.628407001495361328 -1.33520019054412842 0 0 0
0.116801783442497253 0.62850797176361084 -1.30939018726348877 0 0 0
0.235010340809822083 0.629427611827850342 -1.25237321853637695 0 0 0
0.116149216890335083 0.628715932369232178 -1.3341294527053833 0 0 0
0.0458301752805709839 0.648243248462677002 -1.37632167339324951 0 0 0
0.103896573185920715 0.645958960056304932 -1.32128226757049561 0 0 0
0.262536972761154175 0.630010604858398438 -1.28138959407806396 0 0 0
0.0190661828964948654 0.505628466606140137 -1.11508417129516602 0 0 0
0.00381127651780843735 0.505812287330627441 -1.15712308883666992 0 0 0
0.0549660585820674896 0.505881905555725098 -1.09480762481689453 0 0 0
0.0689957663416862488 0.545931398868560791 -1.08069348335266113 0 0 0
0.0151459509506821632 0.54555124044418335 -1.11110830307006836 0 0 0
0.0407233424484729767 0.545586049556732178 -1.07995069026947021 0 0 0
-0.020525103434920311 0.545809507369995117 -1.18974542617797852 0 0 0
0.00505228713154792786 0.545844316482543945 -1.15858769416809082 0 0 0
0.0449390560388565063 0.585839569568634033 -1.10271334648132324 0 0 0
0.0538574382662773132 0.59837186336517334 -1.09400093555450439 0 0 0
0.0399933569133281708 0.626089096069335938 -1.13761353492736816 0 0 0
0.305312424898147583 0.293652921915054321 -1.35785162448883057 0 0 0
0.292407214641571045 0.311103880405426025 -1.3697437047958374 0 0 0
0.315984517335891724 0.311191409826278687 -1.34737503528594971 0 0 0
0.315425187349319458 0.311369657516479492 -1.36858022212982178 0 0 0
0.31805950403213501 0.110731184482574463 -1.29429292678833008 0 0 0
0.298668831586837769 0.110478885471820831 -1.29201507568359375 0 0 0
0.317593365907669067 0.110879719257354736 -1.31196391582489014 0 0 0
0.308571815490722656 0.14569370448589325 -1.30259096622467041 0 0 0
0.308451980352401733 0.155692607164382935 -1.30250382423400879 0 0 0
0.302871257066726685 0.190579473972320557 -1.29675805568695068 0 0 0
0.313193738460540771 0.190798103809356689 -1.30763912200927734 0 0 0
0.267983585596084595 0.229846328496932983 -1.26013875007629395 0 0 0
0.290908306837081909 0.230141788721084595 -1.26250934600830078 0 0 0
0.318434923887252808 0.230724826455116272 -1.29152572154998779 0 0 0
0.272665411233901978 0.269951283931732178 -1.26523041725158691 0 0 0
0.317396163940429688 0.270898699760437012 -1.31238198280334473 0 0 0
0.263583928346633911 0.309764713048934937 -1.25581395626068115 0 0 0
0.31384885311126709 0.310702621936798096 -1.29426932334899902 0 0 0
0.306444466114044189 0.323174327611923218 -1.30104303359985352 0 0 0
0.298109471797943115 0.11065712571144104 -1.31322026252746582 0 0 0
0.26733100414276123 0.230054274201393127 -1.28487801551818848 0 0 0
0.291230350732803345 0.230623841285705566 -1.31733572483062744 0 0 0
0.273626744747161865 0.310072481632232666 -1.2772977352142334 0 0 0
0.297526091337203979 0.310642033815383911 -1.30975532531738281 0 0 0
0.291339397430419922 0.310859501361846924 -1.34319090843200684 0 0 0
3 8 1 13
3 53 2 60
3 60 2 10
3 10 2 3
3 3 2 100
3 100 2 53
3 101 3 100
3 10 3 14
3 14 3 9
3 9 3 4
3 4 3 101
3 104 4 99
3 99 4 98
3 98 4 101
3 9 4 5
3 5 4 104
3 9 5 11
3 11 5 6
3 6 5 104
3 103 6 104
3 11 6 18
3 18 6 12
3 12 6 7
3 7 6 103
3 105 7 103
3 12 7 13
3 13 7 8
3 8 7 108
3 108 7 107
3 107 7 105
3 73 8 59
3 59 8 108
3 15 9 11
3 14 9 15
3 63 10 16
3 16 10 14
3 60 10 63
3 15 11 18
3 23 12 22
3 22 12 13
3 18 12 37
3 37 12 23
3 22 13 24
3 16 14 29
3 29 14 17
3 17 14 15
3 19 15 18
3 17 15 27
3 27 15 19
3 28 16 29
3 63 16 28
3 29 17 27
3 19 18 35
3 35 18 37
3 27 19 33
3 33 19 35
3 26 20 25
3 25 20 21
3 21 20 31
3 31 20 30
3 30 20 81
3 81 20 71
3 71 20 26
3 32 21 31
3 25 21 34
3 34 21 32
3 23 22 26
3 26 22 24
3 38 23 36
3 36 23 34
3 34 23 25
3 25 23 26
3 37 23 38
3 71 26 70
3 70 26 73
3 29 27 33
3 30 28 31
3 31 28 29
3 63 28 75
3 75 28 30
3 31 29 33
3 75 30 81
3 32 31 33
3 34 32 36
3 36 32 39
3 39 32 33
3 39 33 37
3 37 33 35
3 38 36 39
3 39 37 38
3 180 40 41
3 41 40 44
3 44 40 49
3 49 40 184
3 184 40 180
3 180 41 43
3 43 41 44
3 179 42 45
3 45 42 47
3 47 42 48
3 48 42 43
3 43 42 179
3 178 43 179
3 48 43 44
3 180 43 178
3 48 44 49
3 46 45 47
3 179 45 183
3 183 45 185
3 185 45 46
3 52 46 50
3 50 46 47
3 185 46 188
3 188 46 194
3 194 46 52
3 50 47 51
3 51 47 48
3 51 48 49
3 187 49 184
3 51 49 56
3 56 49 186
3 186 49 187
3 52 50 57
3 57 50 58
3 58 50 51
3 58 51 56
3 55 52 57
3 194 52 55
3 54 53 60
3 100 53 106
3 106 53 192
3 192 53 54
3 59 54 62
3 62 54 61
3 61 54 60
3 192 54 196
3 196 54 59
3 56 55 57
3 194 55 188
3 188 55 56
3 58 56 57
3 188 56 186
3 73 59 72
3 72 59 62
3 196 59 108
3 61 60 66
3 66 60 64
3 64 60 63
3 62 61 67
3 67 61 66
3 72 62 67
3 64 63 65
3 65 63 75
3 66 64 65
3 66 65 74
3 74 65 80
3 80 65 75
3 68 66 74
3 67 66 78
3 78 66 68
3 70 67 78
3 72 67 70
3 69 68 76
3 76 68 74
3 78 68 69
3 77 69 76
3 78 69 79
3 79 69 77
3 71 70 81
3 81 70 78
3 72 70 73
3 76 74 80
3 80 75 81
3 82 76 80
3 77 76 82
3 79 77 82
3 80 78 79
3 81 78 80
3 80 79 82
3 209 83 211
3 211 83 84
3 84 83 109
3 109 83 232
3 232 83 209
3 211 84 210
3 210 84 109
3 121 85 86
3 86 85 87
3 87 85 121
3 121 86 87
3 89 88 92
3 92 88 91
3 91 88 93
3 93 88 95
3 95 88 89
3 96 89 94
3 94 89 92
3 95 89 96
3 173 90 192
3 192 90 97
3 97 90 107
3 107 90 108
3 108 90 173
3 92 91 102
3 102 91 98
3 98 91 99
3 99 91 93
3 94 92 102
3 99 93 104
3 104 93 103
3 103 93 95
3 97 94 102
3 96 94 97
3 103 95 96
3 105 96 97
3 103 96 105
3 192 97 106
3 106 97 102
3 105 97 107
3 102 98 106
3 106 98 101
3 101 100 106
3 196 108 173
3 210 109 232
3 114 110 111
3 111 110 113
3 113 110 112
3 112 110 114
3 116 111 113
3 114 111 116
3 113 112 116
3 116 112 114
3 122 115 119
3 119 115 117
3 117 115 120
3 120 115 122
3 119 117 123
3 123 117 120
3 129 118 127
3 127 118 130
3 130 118 134
3 134 118 129
3 122 119 123
3 123 120 122
3 125 124 128
3 128 124 131
3 131 124 139
3 139 124 136
3 136 124 198
3 198 124 197
3 197 124 125
3 135 125 126
3 126 125 128
3 197 125 199
3 199 125 135
3 138 126 128
3 135 126 138
3 129 127 132
3 132 127 130
3 138 128 140
3 140 128 131
3 134 129 132
3 132 130 134
3 133 131 143
3 143 131 139
3 140 131 141
3 141 131 144
3 144 131 133
3 144 133 147
3 147 133 143
3 148 135 153
3 153 135 138
3 199 135 200
3 200 135 148
3 139 136 142
3 142 136 137
3 137 136 150
3 150 136 203
3 203 136 198
3 142 137 152
3 152 137 149
3 149 137 150
3 153 138 140
3 143 139 155
3 155 139 142
3 153 140 154
3 154 140 141
3 156 141 155
3 155 141 146
3 146 141 144
3 154 141 156
3 145 142 152
3 155 142 145
3 146 143 155
3 147 143 146
3 146 144 147
3 159 145 160
3 160 145 152
3 155 145 158
3 158 145 159
3 164 148 153
3 200 148 206
3 206 148 164
3 163 149 150
3 152 149 163
3 163 150 151
3 151 150 203
3 163 151 178
3 178 151 162
3 162 151 204
3 204 151 203
3 160 152 167
3 167 152 166
3 166 152 163
3 164 153 175
3 175 153 177
3 177 153 154
3 177 154 171
3 171 154 170
3 170 154 156
3 170 155 158
3 156 155 170
3 187 157 168
3 168 157 169
3 169 157 160
3 160 157 161
3 161 157 158
3 158 157 170
3 170 157 187
3 161 158 159
3 161 159 160
3 169 160 167
3 205 162 204
3 178 162 165
3 165 162 176
3 176 162 174
3 174 162 205
3 166 163 183
3 183 163 179
3 179 163 178
3 205 164 207
3 207 164 175
3 206 164 205
3 178 165 180
3 180 165 171
3 171 165 176
3 167 166 183
3 185 167 183
3 169 167 188
3 188 167 185
3 186 168 169
3 187 168 186
3 186 169 188
3 171 170 187
3 177 171 182
3 182 171 176
3 180 171 184
3 184 171 187
3 193 172 190
3 190 172 189
3 189 172 191
3 191 172 193
3 196 173 192
3 207 174 205
3 176 174 181
3 181 175 182
3 182 175 177
3 182 176 181
3 190 189 195
3 195 189 191
3 193 190 195
3 195 191 193
3 198 197 204
3 204 197 201
3 201 197 202
3 202 197 199
3 203 198 204
3 202 199 200
3 202 200 206
3 204 201 205
3 205 201 206
3 206 201 202
3 210 208 211
3 211 208 209
3 209 208 232
3 232 208 210
3 213 212 215
3 215 212 214
3 227 213 215
3 215 214 227
3 229 216 217
3 217 216 218
3 218 216 229
3 219 217 218
3 229 217 228
3 228 217 219
3 219 218 220
3 220 218 221
3 221 218 223
3 223 218 229
3 222 219 220
3 228 219 230
3 230 219 222
3 222 220 221
3 222 221 224
3 224 221 225
3 225 221 223
3 230 222 224
3 231 223 229
3 225 223 226
3 226 223 231
3 226 224 225
3 230 224 226
3 230 226 231
3 229 228 230
3 231 229 230
